<svg width="24" height="24" fill="none" xmlns="http://www.w3.org/2000/svg"><circle cx="3.4" cy="3.4" r="3.4" transform="matrix(-1 0 0 1 15.62 5)" stroke="#62FDFE" stroke-width="1.5"/><path d="M6.26 16.86c0-.73.46-1.38 1.15-1.63a14.3 14.3 0 0 1 9.61 0c.69.24 1.15.9 1.15 1.63v1.12c0 1.01-.9 1.79-1.9 1.64l-.33-.04a26.36 26.36 0 0 0-7.46 0l-.33.04c-1 .15-1.9-.63-1.9-1.64v-1.12Z" stroke="#fff" stroke-width="1.5"/><path d="M17.32 11.9a2.67 2.67 0 1 0 0-5.35" stroke="#62FDFE" stroke-width="1.5" stroke-linecap="round"/><path d="m20.25 18 .26.04a1.3 1.3 0 0 0 1.49-1.3v-.87c0-.58-.36-1.09-.9-1.28-.54-.2-1.1-.35-1.65-.45" stroke="#fff" stroke-width="1.5" stroke-linecap="round"/><path d="M6.68 11.9a2.67 2.67 0 0 1 0-5.35" stroke="#62FDFE" stroke-width="1.5" stroke-linecap="round"/><path d="m3.75 18-.26.04A1.3 1.3 0 0 1 2 16.74v-.87c0-.58.36-1.09.9-1.28.54-.2 1.1-.35 1.65-.45" stroke="#fff" stroke-width="1.5" stroke-linecap="round"/></svg>