<svg fill="currentColor" width="24" height="24" viewBox="0 0 24 24" xmlns="http://www.w3.org/2000/svg">
<path d="M9.12239 16.5901L5.3859 12.9579C5.13192 12.6933 4.99365 12.3432 5.00022 11.9814C5.0068 11.6197 5.1577 11.2746 5.42114 11.0188C5.68457 10.7629 6.03998 10.6164 6.41248 10.61C6.78498 10.6036 7.14549 10.7379 7.41806 10.9846L10.1442 13.63L16.5819 7.37474C16.8545 7.12811 17.215 6.99384 17.5875 7.00022C17.96 7.0066 18.3154 7.15314 18.5789 7.40896C18.8423 7.66478 18.9932 8.00991 18.9998 8.37164C19.0063 8.73336 18.8681 9.08345 18.6141 9.34813L11.1373 16.5901C11.006 16.7199 10.8493 16.823 10.6765 16.8934C10.5037 16.9638 10.3182 17 10.1308 17C9.94341 17 9.7579 16.9638 9.58509 16.8934C9.41228 16.823 9.25564 16.7199 9.12431 16.5901H9.12239Z" />
</svg>
