<svg fill="currentColor" width="24" height="24" viewBox="0 0 24 24"  xmlns="http://www.w3.org/2000/svg">
<path d="M5.4247 18.5689C5.1526 18.2936 5 17.9223 5 17.5353C5 17.1483 5.1526 16.7769 5.4247 16.5017L16.4664 5.46553C16.6004 5.32183 16.7619 5.20656 16.9414 5.12662C17.1209 5.04668 17.3146 5.00369 17.5111 5.00023C17.7075 4.99676 17.9027 5.03289 18.0848 5.10645C18.267 5.18002 18.4325 5.28951 18.5715 5.4284C18.7104 5.56729 18.8199 5.73273 18.8935 5.91486C18.9671 6.09698 19.0032 6.29206 18.9998 6.48845C18.9963 6.68484 18.9533 6.87852 18.8733 7.05794C18.7934 7.23735 18.6781 7.39883 18.5343 7.53273L7.49259 18.5708C7.35852 18.7089 7.19767 18.8182 7.01988 18.892C6.8421 18.9657 6.65112 19.0025 6.45864 18.9999C6.2663 19.0003 6.0758 18.9624 5.89827 18.8884C5.72075 18.8144 5.55975 18.7058 5.4247 18.5689Z" />
<path d="M16.4923 18.5658L5.37485 7.45376C5.12397 7.17324 4.99005 6.80736 5.00058 6.43125C5.01111 6.05514 5.16529 5.69733 5.43148 5.43127C5.69766 5.16521 6.05565 5.0111 6.43195 5.00058C6.80824 4.99005 7.17429 5.12391 7.45495 5.37467L18.5724 16.4867C18.8464 16.7638 19 17.1377 19 17.5272C19 17.9168 18.8464 18.2907 18.5724 18.5677C18.4359 18.7048 18.2736 18.8135 18.095 18.8876C17.9163 18.9618 17.7248 19 17.5314 19C17.3379 19 17.1464 18.9618 16.9677 18.8876C16.7891 18.8135 16.6268 18.7048 16.4903 18.5677L16.4923 18.5658Z" />
</svg>
