<?xml version="1.0" standalone="no"?><!DOCTYPE svg PUBLIC "-//W3C//DTD SVG 1.1//EN" "http://www.w3.org/Graphics/SVG/1.1/DTD/svg11.dtd"><svg fill="currentColor" t="1747748674979" class="icon" viewBox="0 0 1024 1024" version="1.1" xmlns="http://www.w3.org/2000/svg" p-id="16722" xmlns:xlink="http://www.w3.org/1999/xlink" width="24" height="24"><path d="M880 326.4c-12.8 9.6-19.2 25.6-12.8 38.4 22.4 57.6 35.2 121.6 28.8 185.6-16 172.8-153.6 316.8-326.4 339.2-256 38.4-470.4-176-438.4-428.8C153.6 288 297.6 147.2 473.6 131.2c112-9.6 214.4 25.6 288 89.6 12.8 9.6 25.6 9.6 38.4 3.2h3.2c16-12.8 19.2-35.2 3.2-48-92.8-80-214.4-121.6-348.8-105.6-201.6 22.4-364.8 182.4-390.4 384C32 745.6 278.4 992 569.6 956.8c195.2-25.6 352-179.2 384-371.2 12.8-86.4 3.2-172.8-28.8-246.4-6.4-19.2-28.8-25.6-44.8-12.8z" p-id="16723"></path><path d="M736 544h-240l-169.6-236.8c-9.6-16-6.4-35.2 6.4-44.8 12.8-9.6 35.2-6.4 44.8 6.4l150.4 211.2H736c19.2 0 32 12.8 32 32s-12.8 32-32 32z" p-id="16724"></path></svg>