<svg fill="currentColor" width="24" height="24" xmlns="http://www.w3.org/2000/svg"><g clip-path="url(#a)"><path d="M18.39 11.55H2.93a.89.89 0 0 1-.9-.73.85.85 0 0 1 .54-1c.09 0 1.27-.73 1.27-2.37 0-1.72-1.27-2.36-1.27-2.36a.87.87 0 0 1-.55-1 .9.9 0 0 1 .91-.73H18.4c.18 0 .27 0 .36.1.1.09 2.36 1.18 2.36 4 0 2.81-2.18 3.9-2.36 4-.1.09-.18.09-.36.09ZM5.1 9.73h13.1c.36-.28 1.18-.91 1.18-2.28 0-1.36-.82-2-1.19-2.27H5.11c.37.55.55 1.37.55 2.27 0 .91-.27 1.73-.55 2.28Zm15.1 11.82H4.74c-.18 0-.27 0-.36-.1-.1-.09-2.37-1.18-2.37-4 0-2.81 2.18-3.9 2.37-4 .09-.09.18-.09.36-.09H20.2c.46 0 .82.28.91.73a.9.9 0 0 1-.45 1c-.1 0-1.36.73-1.36 2.36a2.62 2.62 0 0 0 1.27 2.37c.36.18.54.63.45 1 0 .45-.36.73-.82.73ZM5.01 19.73h13.1a4.2 4.2 0 0 1-.55-2.28c0-.9.27-1.72.54-2.27H5.02c-.36.27-1.18.91-1.18 2.27 0 1.37.82 2 1.18 2.28Z"/></g><defs><clipPath id="a"><path d="M2 2h19.09v20H2z"/></clipPath></defs></svg>