<?xml version="1.0" standalone="no"?><!DOCTYPE svg PUBLIC "-//W3C//DTD SVG 1.1//EN" "http://www.w3.org/Graphics/SVG/1.1/DTD/svg11.dtd"><svg fill="currentColor" t="1710820812233" class="icon" viewBox="0 0 1024 1024" version="1.1" xmlns="http://www.w3.org/2000/svg" p-id="5216" xmlns:xlink="http://www.w3.org/1999/xlink" width="24" height="24"><path d="M512 96A416 416 0 1 0 928 512 416.469333 416.469333 0 0 0 512 96z m0 768A352 352 0 1 1 864 512 352.384 352.384 0 0 1 512 864zM554.666667 341.333333a42.666667 42.666667 0 1 1-42.666667-42.666666 42.666667 42.666667 0 0 1 42.666667 42.666666z m-10.666667 170.666667v170.666667a32 32 0 0 1-64 0v-170.666667a32 32 0 0 1 64 0z" p-id="5217"></path></svg>