<?xml version="1.0" standalone="no"?><!DOCTYPE svg PUBLIC "-//W3C//DTD SVG 1.1//EN" "http://www.w3.org/Graphics/SVG/1.1/DTD/svg11.dtd"><svg fill="currentColor" t="1749224192873" class="icon" viewBox="0 0 1024 1024" version="1.1" xmlns="http://www.w3.org/2000/svg" p-id="39246" xmlns:xlink="http://www.w3.org/1999/xlink" width="24" height="24"><path d="M972.92032 574.464a51.2 51.2 0 0 1-51.2-51.2V390.656l-301.056 301.056a51.2 51.2 0 0 1-72.192 0L368.76032 512l-281.088 281.088a51.2 51.2 0 0 1-72.704-72.704l317.44-317.44a51.2 51.2 0 0 1 72.192 0l179.712 179.712 264.704-264.704H716.92032a51.2 51.2 0 0 1 0-102.4h256a51.2 51.2 0 0 1 51.2 51.2v256a51.2 51.2 0 0 1-51.2 51.712z" p-id="39247"></path></svg>