<?xml version="1.0" standalone="no"?><!DOCTYPE svg PUBLIC "-//W3C//DTD SVG 1.1//EN" "http://www.w3.org/Graphics/SVG/1.1/DTD/svg11.dtd"><svg fill="currentColor" t="1751366041074" class="icon" viewBox="0 0 1024 1024" version="1.1" xmlns="http://www.w3.org/2000/svg" p-id="13775" xmlns:xlink="http://www.w3.org/1999/xlink" width="24" height="24"><path d="M578.986667 954.88a84.394667 84.394667 0 0 1-29.013334-5.162667 80.298667 80.298667 0 0 1-52.48-75.946666V598.613333H397.653333a81.066667 81.066667 0 0 1-60.586666-134.826666l322.986666-366.933334a81.066667 81.066667 0 0 1 142.08 53.76v275.2h99.882667a81.066667 81.066667 0 0 1 60.544 134.826667l-322.986667 366.933333a80.725333 80.725333 0 0 1-60.586666 27.306667z m141.226666-821.717333a15.573333 15.573333 0 0 0-12.373333 5.973333L384.853333 506.453333a16.426667 16.426667 0 0 0-2.986666 18.346667 16.725333 16.725333 0 0 0 15.786666 10.197333h131.84a32.042667 32.042667 0 0 1 32.042667 32.042667v307.2a17.066667 17.066667 0 0 0 11.093333 16.213333 19.328 19.328 0 0 0 6.613334 1.237334 15.402667 15.402667 0 0 0 12.16-5.930667l322.986666-367.36a17.066667 17.066667 0 0 0-12.8-28.586667H769.706667a32.042667 32.042667 0 0 1-32-32v-307.2a16.725333 16.725333 0 0 0-11.093334-16.213333 13.056 13.056 0 0 0-6.4-1.237333z" p-id="13776"></path><path d="M64 202.666667A32.213333 32.213333 0 0 1 32 170.666667a32.213333 32.213333 0 0 1 32-32h298.666667a32.213333 32.213333 0 0 1 32 32 32.213333 32.213333 0 0 1-32 32zM64 885.333333A32.213333 32.213333 0 0 1 32 853.333333a32.213333 32.213333 0 0 1 32-32h256a32.213333 32.213333 0 0 1 32 32 32.213333 32.213333 0 0 1-32 32zM64 544A32.213333 32.213333 0 0 1 32 512a32.213333 32.213333 0 0 1 32-32h128a32.213333 32.213333 0 0 1 32 32 32.213333 32.213333 0 0 1-32 32z" p-id="13777"></path></svg>