<?xml version="1.0" standalone="no"?><!DOCTYPE svg PUBLIC "-//W3C//DTD SVG 1.1//EN" "http://www.w3.org/Graphics/SVG/1.1/DTD/svg11.dtd"><svg fill="currentColor" t="1729957009081" class="icon" viewBox="0 0 1024 1024" version="1.1" xmlns="http://www.w3.org/2000/svg" p-id="31660" xmlns:xlink="http://www.w3.org/1999/xlink" width="24" height="24"><path d="M480 554.666667V330.666667A32.213333 32.213333 0 0 1 512 298.666667a32.213333 32.213333 0 0 1 32 32V554.666667a32.213333 32.213333 0 0 1-32 32 32.213333 32.213333 0 0 1-32-32z"  p-id="31661"></path><path d="M481.706667 723.712a62.336 62.336 0 0 1-9.386667-14.08 42.069333 42.069333 0 0 1-2.986667-16.298667 44.885333 44.885333 0 0 1 12.373334-30.293333 44.672 44.672 0 0 1 60.586666 0 44.885333 44.885333 0 0 1 12.373334 30.293333 42.666667 42.666667 0 0 1-3.413334 16.213334 49.28 49.28 0 0 1-8.96 14.08 42.24 42.24 0 0 1-30.293333 12.373333 42.24 42.24 0 0 1-30.293333-12.288z"  p-id="31662"></path><path d="M512 970.453333a164.949333 164.949333 0 0 1-83.157333-22.144l-253.44-146.346666A167.722667 167.722667 0 0 1 92.16 657.92V366.08A167.722667 167.722667 0 0 1 175.36 221.866667l253.44-146.346667a165.034667 165.034667 0 0 1 83.029333-22.4 166.741333 166.741333 0 0 1 83.370667 22.4l253.44 146.346667a167.765333 167.765333 0 0 1 83.2 144.213333v291.84a167.765333 167.765333 0 0 1-83.2 144.213333l-253.44 146.346667a165.205333 165.205333 0 0 1-83.2 21.973333z m0-853.333333a103.68 103.68 0 0 0-51.2 13.653333L207.36 277.333333a103.04 103.04 0 0 0-51.2 88.746667v291.84a103.04 103.04 0 0 0 51.2 88.746667l253.44 146.346666a101.845333 101.845333 0 0 0 51.2 13.781334 100.266667 100.266667 0 0 0 50.858667-13.781334l253.44-146.346666a103.04 103.04 0 0 0 51.2-88.746667V366.08a103.04 103.04 0 0 0-51.2-88.746667l-253.44-146.346666A102.058667 102.058667 0 0 0 512 117.12z"  p-id="31663"></path></svg>