<svg fill="currentColor" class="icon" viewBox="0 0 1024 1024" xmlns="http://www.w3.org/2000/svg" width="24" height="24"><path d="M847.79 529.07A334.25 334.25 0 0 0 705.28 289.7a32.09 32.09 0 0 1-8.1-44.38 32.17 32.17 0 0 1 44.37-8.1 398.3 398.3 0 0 1 169.38 285.01 32.38 32.38 0 0 1-28.58 35.41h-2.56a32.6 32.6 0 0 1-32-28.58zM145.5 559.79a32.68 32.68 0 0 1-28.76-35.42 399.15 399.15 0 0 1 167-285.44 32.13 32.13 0 0 1 37.11 52.48A334.8 334.8 0 0 0 180.48 531.2a31.57 31.57 0 0 1-31.57 28.59zm189.43 362.24a32.04 32.04 0 0 1 29.02-57.18 337.07 337.07 0 0 0 296.1 2.56 32 32 0 0 1 27.74 57.6 393.26 393.26 0 0 1-173.23 39.68 397.57 397.57 0 0 1-179.63-42.66zM514.52 360.1a150.61 150.61 0 1 1 150.61-150.62 150.78 150.78 0 0 1-150.61 150.62zm0-236.76a86.61 86.61 0 1 0 86.61 86.57 86.7 86.7 0 0 0-86.61-86.61zm-308.4 758.57a150.61 150.61 0 1 1 150.62-150.61 150.78 150.78 0 0 1-150.62 150.61zm0-237.18a86.61 86.61 0 1 0 86.62 86.57 86.7 86.7 0 0 0-86.62-86.62zm611.84 237.18a150.61 150.61 0 1 1 150.62-150.61 150.78 150.78 0 0 1-150.62 150.61zm0-237.18a86.61 86.61 0 1 0 86.62 86.57 86.7 86.7 0 0 0-86.62-86.62z"/></svg>