<?xml version="1.0" standalone="no"?><!DOCTYPE svg PUBLIC "-//W3C//DTD SVG 1.1//EN" "http://www.w3.org/Graphics/SVG/1.1/DTD/svg11.dtd"><svg t="1747133118837" fill="currentColor" class="icon" viewBox="0 0 1024 1024" version="1.1" xmlns="http://www.w3.org/2000/svg" p-id="13597" xmlns:xlink="http://www.w3.org/1999/xlink" width="24" height="24"><path d="M640 970.666667H384c-231.765333 0-330.666667-98.901333-330.666667-330.666667V384c0-231.765333 98.901333-330.666667 330.666667-330.666667h256c231.765333 0 330.666667 98.901333 330.666667 330.666667v256c0 231.765333-98.901333 330.666667-330.666667 330.666667z m-256-853.333334C187.136 117.333333 117.333333 187.136 117.333333 384v256c0 196.864 69.802667 266.666667 266.666667 266.666667h256c196.864 0 266.666667-69.802667 266.666667-266.666667V384c0-196.864-69.76-266.666667-266.666667-266.666667z" p-id="13598"></path><path d="M469.333333 512a42.666667 42.666667 0 1 1 42.666667 42.666667 42.666667 42.666667 0 0 1-42.666667-42.666667zM640 512a42.666667 42.666667 0 1 1 42.666667 42.666667 42.666667 42.666667 0 0 1-42.666667-42.666667zM298.666667 512a42.666667 42.666667 0 1 1 42.666666 42.666667 42.666667 42.666667 0 0 1-42.666666-42.666667z" p-id="13599"></path></svg>