<?xml version="1.0" standalone="no"?><!DOCTYPE svg PUBLIC "-//W3C//DTD SVG 1.1//EN" "http://www.w3.org/Graphics/SVG/1.1/DTD/svg11.dtd"><svg fill="currentColor" t="1729889451259" class="icon" viewBox="0 0 1024 1024" version="1.1" xmlns="http://www.w3.org/2000/svg" p-id="31036" xmlns:xlink="http://www.w3.org/1999/xlink" width="24" height="24"><path d="M426.666667 629.333333a32 32 0 0 1 0-64h106.666666a202.666667 202.666667 0 0 0 0-405.333333h-213.333333a202.410667 202.410667 0 0 0-156.16 331.52 32.128 32.128 0 0 1-49.493333 40.96A266.325333 266.325333 0 0 1 319.573333 96h213.333334a266.666667 266.666667 0 0 1 0.426666 533.333333z" p-id="31037"></path><path d="M490.666667 928a266.666667 266.666667 0 0 1 0-533.333333H597.333333a32.213333 32.213333 0 0 1 32 32 32.213333 32.213333 0 0 1-32 32h-106.666666a202.666667 202.666667 0 0 0 0 405.333333h213.333333a202.410667 202.410667 0 0 0 156.16-331.52 32.341333 32.341333 0 0 1 4.266667-45.226667 31.957333 31.957333 0 0 1 45.226666 4.266667 266.325333 266.325333 0 0 1-205.653333 436.48z"  p-id="31038"></path></svg>