<svg fill="currentColor" class="icon" viewBox="0 0 1024 1024" xmlns="http://www.w3.org/2000/svg" width="24" height="24"><path d="M512 696.75A184.75 184.75 0 1 1 696.75 512 184.96 184.96 0 0 1 512 696.75zm0-305.5A120.75 120.75 0 1 0 632.75 512 120.87 120.87 0 0 0 512 391.25z"/><path d="M512 896.85c-160.13 0-311.77-93.6-416.04-256.8a258.77 258.77 0 0 1 0-256C200.7 220.74 352.2 127.14 512 127.14S823.47 220.75 927.57 384a258.56 258.56 0 0 1 0 256C823.34 803.24 671.87 896.85 512 896.85zm0-705.66c-137.9 0-269.78 82.9-361.86 227.41a194.47 194.47 0 0 0 0 186.88C242.26 750 374.14 832.9 512 832.9S781.7 750 873.81 605.48a194.47 194.47 0 0 0 0-186.88C781.74 274.05 649.86 191.15 512 191.15z"/></svg>