<?xml version="1.0" standalone="no"?><!DOCTYPE svg PUBLIC "-//W3C//DTD SVG 1.1//EN" "http://www.w3.org/Graphics/SVG/1.1/DTD/svg11.dtd"><svg fill="currentColor" t="1729764879045" class="icon" viewBox="0 0 1024 1024" version="1.1" xmlns="http://www.w3.org/2000/svg" p-id="14744" xmlns:xlink="http://www.w3.org/1999/xlink" width="24" height="24"><path d="M768.426667 337.92c0-0.384 0-0.384-0.426667-0.384h-5.546667a131.584 131.584 0 1 1 6.016 0.426667z m-5.12-64.768a49.109333 49.109333 0 0 1 5.12 0.298667 78.933333 78.933333 0 1 0-7.68 0 6.101333 6.101333 0 0 1 2.56-0.298667z"  p-id="14745"></path><path d="M718.506667 647.68a32.042667 32.042667 0 1 1 11.093333-63.146667 208 208 0 0 0 145.066667-25.6 58.538667 58.538667 0 0 0 30.72-46.506666 58.922667 58.922667 0 0 0-30.72-46.08 208.768 208.768 0 0 0-146.346667-25.173334 31.701333 31.701333 0 0 1-37.12-26.026666 32 32 0 0 1 26.026667-37.12 269.994667 269.994667 0 0 1 192.853333 34.986666 121.514667 121.514667 0 0 1 59.306667 99.413334 122.325333 122.325333 0 0 1-59.306667 99.968 259.669333 259.669333 0 0 1-141.653333 39.68 281.6 281.6 0 0 1-49.92-4.394667zM257.706667 337.536h-3.84a141.866667 141.866667 0 1 1 9.813333 0l-8.96-32 2.986667 32z m1.28-64a41.6 41.6 0 0 1 7.253333 0.426667A77.312 77.312 0 0 0 337.493333 195.84a78.08 78.08 0 1 0-82.346666 78.08 8.533333 8.533333 0 0 1 3.84-0.426667zM112.64 612.394667a122.197333 122.197333 0 0 1-59.306667-99.968 122.112 122.112 0 0 1 59.306667-99.413334 269.994667 269.994667 0 0 1 192.853333-34.986666 32 32 0 0 1 26.026667 37.12 31.701333 31.701333 0 0 1-37.12 26.026666 209.066667 209.066667 0 0 0-146.346667 25.173334 57.898667 57.898667 0 0 0-30.72 46.08 59.733333 59.733333 0 0 0 30.72 46.506666 208 208 0 0 0 145.066667 25.6 32.042667 32.042667 0 1 1 11.093333 63.146667 281.6 281.6 0 0 1-49.92 4.266667 259.669333 259.669333 0 0 1-141.653333-39.552zM512.426667 656.64c0-0.384 0-0.384-0.426667-0.384h-5.546667a131.584 131.584 0 1 1 6.016 0.426667z m-5.12-64.768a49.109333 49.109333 0 0 1 5.12 0.298667 78.933333 78.933333 0 1 0-7.68 0 6.101333 6.101333 0 0 1 2.56-0.298667zM511.957333 971.093333a255.402667 255.402667 0 0 1-142.08-40.106666 121.941333 121.941333 0 0 1-59.306666-99.413334 121.642667 121.642667 0 0 1 59.306666-99.84 259.754667 259.754667 0 0 1 142.250667-39.68 258.005333 258.005333 0 0 1 141.909333 39.68 122.026667 122.026667 0 0 1 59.306667 99.413334 121.472 121.472 0 0 1-59.306667 99.84 258.133333 258.133333 0 0 1-142.08 40.106666z m0.426667-214.613333a198.698667 198.698667 0 0 0-107.093333 28.970667 58.496 58.496 0 0 0-30.72 46.549333 59.008 59.008 0 0 0 30.72 46.08 192 192 0 0 0 106.453333 29.141333 192 192 0 0 0 106.453333-29.141333 58.453333 58.453333 0 0 0 30.72-46.506667 59.136 59.136 0 0 0-30.72-46.08 190.08 190.08 0 0 0-105.813333-28.970666z"  p-id="14746"></path></svg>