<svg fill="currentColor" class="icon" viewBox="0 0 1024 1024" xmlns="http://www.w3.org/2000/svg" width="24" height="24"><path d="M473.6 970.67H294.4c-166.7 0-241.07-74.37-241.07-241.07V550.4c0-166.7 74.37-241.07 241.07-241.07h179.2c166.74 0 241.07 74.37 241.07 241.07v179.2c0 166.7-74.37 241.07-241.07 241.07zM294.4 373.33c-132.27 0-177.07 44.68-177.07 177.07v179.2c0 132.4 44.68 177.07 177.07 177.07h179.2c132.4 0 177.07-44.68 177.07-177.07V550.4c0-132.27-44.68-177.07-177.11-177.07z"/><path d="M729.6 714.67h-46.93a32.43 32.43 0 0 1-32-32V550.4c0-132.4-44.68-177.07-177.07-177.07H341.33a32.04 32.04 0 0 1-32-32V294.4c0-166.7 74.37-241.07 241.07-241.07h179.2c166.74 0 241.07 74.37 241.07 241.07v179.2c0 166.7-74.37 241.07-241.07 241.07zM550.4 117.33c-132.27 0-177.07 44.68-177.07 177.07v14.93H473.6c166.74 0 241.07 74.37 241.07 241.07v100.27h14.93c132.4 0 177.07-44.68 177.07-177.07V294.4c0-132.27-44.68-177.07-177.11-177.07z"/></svg>