<?xml version="1.0" standalone="no"?><!DOCTYPE svg PUBLIC "-//W3C//DTD SVG 1.1//EN" "http://www.w3.org/Graphics/SVG/1.1/DTD/svg11.dtd"><svg fill="currentColor" t="1729887294248" class="icon" viewBox="0 0 1024 1024" version="1.1" xmlns="http://www.w3.org/2000/svg" p-id="30880" xmlns:xlink="http://www.w3.org/1999/xlink" width="24" height="24"><path d="M53.333333 512A459.050667 459.050667 0 0 1 512 53.333333a32.213333 32.213333 0 0 1 32 32 32.213333 32.213333 0 0 1-32 32A394.666667 394.666667 0 1 0 906.666667 512a32 32 0 0 1 64 0 458.666667 458.666667 0 0 1-917.333334 0z" p-id="30881"></path><path d="M532.053333 491.904a32.170667 32.170667 0 0 1 0-45.226667l349.866667-349.866666a32 32 0 0 1 45.226667 45.226666l-349.866667 349.866667a31.914667 31.914667 0 0 1-45.226667 0z"  p-id="30882"></path><path d="M906.666667 291.413333V117.333333h-174.08a32.213333 32.213333 0 0 1-32-32 32.213333 32.213333 0 0 1 32-32H938.666667a32.213333 32.213333 0 0 1 32 32v206.08a32 32 0 0 1-64 0z"  p-id="30883"></path></svg>