<?xml version="1.0" standalone="no"?><!DOCTYPE svg PUBLIC "-//W3C//DTD SVG 1.1//EN" "http://www.w3.org/Graphics/SVG/1.1/DTD/svg11.dtd"><svg fill="currentColor" t="1729654807766" class="icon" viewBox="0 0 1024 1024" version="1.1" xmlns="http://www.w3.org/2000/svg" p-id="14277" xmlns:xlink="http://www.w3.org/1999/xlink" width="24" height="24"><path d="M309.333333 213.333333V85.333333A32.213333 32.213333 0 0 1 341.333333 53.333333a32.213333 32.213333 0 0 1 32 32v128a32.213333 32.213333 0 0 1-32 32 32.213333 32.213333 0 0 1-32-32z"  p-id="14278"></path><path d="M650.666667 213.333333V85.333333a32.213333 32.213333 0 0 1 32-32 32.213333 32.213333 0 0 1 32 32v128a32.213333 32.213333 0 0 1-32 32 32.213333 32.213333 0 0 1-32-32zM149.333333 419.84a32.213333 32.213333 0 0 1-32-32 32.213333 32.213333 0 0 1 32-32h725.333334a32.213333 32.213333 0 0 1 32 32 32.213333 32.213333 0 0 1-32 32z"  p-id="14279"></path><path d="M682.666667 970.666667H341.333333c-155.733333 0-245.333333-89.6-245.333333-245.333334V362.666667c0-155.733333 89.6-245.333333 245.333333-245.333334h341.333334c155.733333 0 245.333333 89.6 245.333333 245.333334V725.333333c0 155.733333-89.6 245.333333-245.333333 245.333334zM341.333333 181.333333c-122.026667 0-181.333333 59.306667-181.333333 181.333334V725.333333c0 122.026667 59.306667 181.376 181.333333 181.376h341.333334c122.026667 0 181.333333-59.306667 181.333333-181.376V362.666667c0-122.026667-59.306667-181.333333-181.333333-181.333334z"  p-id="14280"></path><path d="M346.453333 615.253333a49.28 49.28 0 0 1-14.08-8.96 49.28 49.28 0 0 1-8.96-14.08 42.666667 42.666667 0 0 1-3.413333-16.213333 44.885333 44.885333 0 0 1 12.373333-30.293333 49.28 49.28 0 0 1 14.08-8.96 40.789333 40.789333 0 0 1 24.746667-2.56 27.136 27.136 0 0 1 7.68 2.56 32.298667 32.298667 0 0 1 7.68 3.84l6.4 5.12a67.242667 67.242667 0 0 1 5.12 6.4 32.298667 32.298667 0 0 1 3.84 7.68 27.136 27.136 0 0 1 2.56 7.68 57.813333 57.813333 0 0 1 0.853333 8.533333 44.885333 44.885333 0 0 1-12.373333 30.293333 44.885333 44.885333 0 0 1-30.293333 12.373334 42.666667 42.666667 0 0 1-16.213334-3.413334zM481.706667 606.293333l-5.12-6.4a32.298667 32.298667 0 0 1-3.84-7.68 27.136 27.136 0 0 1-2.56-7.637333 57.813333 57.813333 0 0 1-0.853334-8.533333 42.666667 42.666667 0 0 1 3.413334-16.256 49.28 49.28 0 0 1 8.96-14.08 42.666667 42.666667 0 0 1 46.506666-8.96 44.032 44.032 0 0 1 14.08 8.96 44.885333 44.885333 0 0 1 12.373334 30.336 57.813333 57.813333 0 0 1-0.853334 8.533333 27.136 27.136 0 0 1-2.56 7.68 32.298667 32.298667 0 0 1-3.84 7.68l-5.12 6.4a44.032 44.032 0 0 1-14.08 8.96 42.666667 42.666667 0 0 1-16.213333 3.413333 44.885333 44.885333 0 0 1-30.293333-12.416zM346.453333 764.586667a49.28 49.28 0 0 1-14.08-8.96 44.032 44.032 0 0 1-8.96-14.08 42.666667 42.666667 0 0 1-3.413333-16.170667 44.885333 44.885333 0 0 1 12.373333-30.336 49.28 49.28 0 0 1 14.08-8.96 42.666667 42.666667 0 0 1 46.506667 8.96 67.242667 67.242667 0 0 1 5.12 6.4 32.298667 32.298667 0 0 1 3.84 7.68 25.6 25.6 0 0 1 2.56 8.106667 52.266667 52.266667 0 0 1 0.853333 8.149333 44.885333 44.885333 0 0 1-12.373333 30.293333 44.885333 44.885333 0 0 1-30.293333 12.373334 42.666667 42.666667 0 0 1-16.213334-3.456z"  p-id="14281"></path></svg>