<?xml version="1.0" standalone="no"?><!DOCTYPE svg PUBLIC "-//W3C//DTD SVG 1.1//EN" "http://www.w3.org/Graphics/SVG/1.1/DTD/svg11.dtd"><svg fill="currentColor" wt="1750669939665" class="icon" viewBox="0 0 1024 1024" version="1.1" xmlns="http://www.w3.org/2000/svg" p-id="13776" xmlns:xlink="http://www.w3.org/1999/xlink" width="24" height="24"><path d="M512.853333 875.946667a921.6 921.6 0 0 1-293.12-47.36 119.466667 119.466667 0 0 1-75.093333-70.4 114.858667 114.858667 0 0 1 11.52-101.546667l49.066667-81.493333a171.989333 171.989333 0 0 0 19.626666-71.253334V380.586667a288 288 0 1 1 576 0v123.306666a180.266667 180.266667 0 0 0 19.498667 71.68l48.64 81.066667a117.888 117.888 0 0 1 9.429333 101.546667 115.968 115.968 0 0 1-72.96 70.442666 916.650667 916.650667 0 0 1-292.608 47.317334z m0-719.36a224.256 224.256 0 0 0-224 224v123.306666a238.933333 238.933333 0 0 1-28.586666 104.106667l-49.066667 81.493333a52.949333 52.949333 0 0 0-6.4 46.549334 53.973333 53.973333 0 0 0 35.413333 31.573333 858.154667 858.154667 0 0 0 273.066667 44.8 857.898667 857.898667 0 0 0 272.853333-44.8 52.352 52.352 0 0 0 32.853334-32.042667 53.546667 53.546667 0 0 0-4.266667-46.08l-49.066667-81.493333a240.938667 240.938667 0 0 1-28.586666-104.533333V380.586667a224.256 224.256 0 0 0-224.213334-224z" p-id="13777"></path><path d="M583.253333 166.826667a300.672 300.672 0 0 0-35.84-7.68 249.472 249.472 0 0 0-104.106666 7.68 31.744 31.744 0 0 1-38.826667-42.24 116.224 116.224 0 0 1 108.586667-74.24 115.626667 115.626667 0 0 1 108.8 74.24 32.554667 32.554667 0 0 1-5.973334 33.28 32.981333 32.981333 0 0 1-23.893333 10.24 32.469333 32.469333 0 0 1-8.746667-1.28zM399.786667 926.293333a160.597333 160.597333 0 0 1-46.933334-113.066666h64a96.64 96.64 0 0 0 28.16 67.84 96.64 96.64 0 0 0 67.84 28.16 96.128 96.128 0 0 0 96-96h64a160.042667 160.042667 0 0 1-160 160 160.597333 160.597333 0 0 1-113.066666-46.933334z" p-id="13778"></path></svg>