<?xml version="1.0" standalone="no"?><!DOCTYPE svg PUBLIC "-//W3C//DTD SVG 1.1//EN" "http://www.w3.org/Graphics/SVG/1.1/DTD/svg11.dtd"><svg fill="currentColor" t="1730086028871" class="icon" viewBox="0 0 1024 1024" version="1.1" xmlns="http://www.w3.org/2000/svg" p-id="45958" xmlns:xlink="http://www.w3.org/1999/xlink" width="24" height="24"><path d="M512 971.050667a217.301333 217.301333 0 0 1-128.853333-40.490667l-183.466667-136.96a238.634667 238.634667 0 0 1-86.613333-172.416v-317.44a179.2 179.2 0 0 1 110.08-158.72l212.906666-79.786667a223.189333 223.189333 0 0 1 75.52-11.818666 223.189333 223.189333 0 0 1 75.52 11.818666l212.906667 79.786667a179.2 179.2 0 0 1 110.08 158.72v317.141333a238.933333 238.933333 0 0 1-86.613333 172.373334l-183.466667 136.96a209.877333 209.877333 0 0 1-128 40.832z m0.64-853.632a163.2 163.2 0 0 0-53.973333 8.021333L245.76 205.226667a116.949333 116.949333 0 0 0-68.266667 98.986666v316.970667a175.957333 175.957333 0 0 0 60.586667 121.173333l183.466667 136.917334a151.552 151.552 0 0 0 90.496 27.477333 153.002667 153.002667 0 0 0 90.837333-27.52l183.466667-136.917333a176.384 176.384 0 0 0 60.586666-121.173334V303.744a118.058667 118.058667 0 0 0-68.266666-98.944l-212.906667-79.786667a168.618667 168.618667 0 0 0-53.12-7.594666z" p-id="45959"></path><path d="M432.213333 597.802667L363.562667 529.066667a32 32 0 0 1 45.226666-45.226667l46.08 46.08 160.853334-160.810667a32 32 0 0 1 45.226666 45.226667l-183.466666 183.466667a31.914667 31.914667 0 0 1-45.226667 0z"  p-id="45960"></path></svg>