<?xml version="1.0" standalone="no"?><!DOCTYPE svg PUBLIC "-//W3C//DTD SVG 1.1//EN" "http://www.w3.org/Graphics/SVG/1.1/DTD/svg11.dtd"><svg fill="currentColor" t="1729886531860" class="icon" viewBox="0 0 1024 1024" version="1.1" xmlns="http://www.w3.org/2000/svg" p-id="30416" xmlns:xlink="http://www.w3.org/1999/xlink" width="24" height="24"><path d="M512.042667 969.386667a457.045333 457.045333 0 0 1-324.266667-780.8 459.136 459.136 0 0 1 648.533333 0 456.533333 456.533333 0 0 1-324.266666 780.8z m0-850.773334a394.197333 394.197333 0 1 0 394.624 399.786667 394.112 394.112 0 0 0-394.624-399.914667z"  p-id="30417"></path><path d="M326.442667 709.12a32 32 0 1 1 43.946666-46.634667 209.066667 209.066667 0 0 0 283.178667 0 32 32 0 1 1 43.946667 46.506667 270.037333 270.037333 0 0 1-185.6 72.533333 270.037333 270.037333 0 0 1-185.472-72.405333z"  p-id="30418"></path></svg>