<?xml version="1.0" standalone="no"?><!DOCTYPE svg PUBLIC "-//W3C//DTD SVG 1.1//EN" "http://www.w3.org/Graphics/SVG/1.1/DTD/svg11.dtd"><svg fill="currentColor" t="1729785560603" class="icon" viewBox="0 0 1024 1024" version="1.1" xmlns="http://www.w3.org/2000/svg" p-id="15828" xmlns:xlink="http://www.w3.org/1999/xlink" width="24" height="24"><path d="M512 970.666667A458.666667 458.666667 0 1 1 970.666667 512 459.178667 459.178667 0 0 1 512 970.666667z m0-853.333334A394.666667 394.666667 0 1 0 906.666667 512 395.093333 395.093333 0 0 0 512 117.333333z" p-id="15829"></path><path d="M428.8 655.36l-120.746667-120.746667a32 32 0 0 1 45.226667-45.226666l98.133333 98.133333 219.306667-219.264a32 32 0 0 1 45.226667 45.226667l-241.92 241.92a31.914667 31.914667 0 0 1-45.226667 0z" p-id="15830"></path></svg>