<svg fill="currentColor" class="icon" viewBox="0 0 1024 1024" xmlns="http://www.w3.org/2000/svg" width="24" height="24"><path d="M372.9 949.33c-209.49 0-299.09-89.6-299.09-299.09v-5.55c0-189.44 74.67-280.74 241.92-296.62a32.94 32.94 0 0 1 34.99 29.02 32.04 32.04 0 0 1-29.01 34.98c-133.98 12.38-183.9 75.52-183.9 232.96v5.55c0 173.65 61.44 235.1 235.1 235.1h278.18c173.66 0 235.1-61.45 235.1-235.1v-5.55c0-158.29-50.78-221.44-187.31-232.96a31.91 31.91 0 1 1 5.55-63.57C874.24 363 950.19 454.74 950.19 645.46v5.55c0 208.64-89.6 298.24-299.1 298.24z"/><path d="M480 634.88V85.33a32.21 32.21 0 0 1 32-32 32.21 32.21 0 0 1 32 32v549.55a32 32 0 0 1-64 0z"/><path d="M489.39 705.32 346.45 562.4a32 32 0 0 1 45.23-45.23l120.4 120.28 120.24-120.28a32 32 0 0 1 45.23 45.23L534.6 705.32a31.91 31.91 0 0 1-45.22 0z"/></svg>