<?xml version="1.0" standalone="no"?><!DOCTYPE svg PUBLIC "-//W3C//DTD SVG 1.1//EN" "http://www.w3.org/Graphics/SVG/1.1/DTD/svg11.dtd"><svg fill="currentColor" t="1747478712975" class="icon" viewBox="0 0 1024 1024" version="1.1" xmlns="http://www.w3.org/2000/svg" p-id="13597" xmlns:xlink="http://www.w3.org/1999/xlink" width="24" height="24"><path d="M892.586667 287.146667a3361.109333 3361.109333 0 0 0-674.133334-8.533334l-87.04 8.533334a32.213333 32.213333 0 0 1-35.584-29.013334 31.786667 31.786667 0 0 1 28.586667-34.986666l87.04-8.533334a3462.144 3462.144 0 0 1 687.36 8.533334 32.042667 32.042667 0 0 1 28.586667 34.986666 31.616 31.616 0 0 1-31.573334 29.013334z" p-id="13598"></path><path d="M357.162667 243.626667a32.128 32.128 0 0 1-26.026667-36.693334l9.386667-55.893333c6.826667-40.96 16.213333-97.706667 115.626666-97.706667h111.786667c99.84 0 109.226667 58.88 115.626667 98.133334l9.386666 55.466666a31.829333 31.829333 0 1 1-62.72 10.666667l-9.429333-55.466667c-5.973333-37.12-7.253333-44.373333-52.48-44.373333h-111.744c-45.226667 0-46.08 5.973333-52.48 43.946667l-9.813333 55.466666a32 32 0 0 1-31.573334 26.88 26.24 26.24 0 0 1-5.546666-0.426666zM375.04 970.666667c-148.906667 0-154.88-82.346667-159.573333-148.906667L187.648 392.064a32.298667 32.298667 0 0 1 29.866667-34.133333 32.341333 32.341333 0 0 1 34.133333 29.866666l27.733333 429.653334c4.693333 64.853333 6.4 89.173333 95.573334 89.173333h273.92c89.6 0 91.306667-24.32 95.573333-89.173333l27.733333-429.653334a32.597333 32.597333 0 0 1 34.133334-29.866666 32.042667 32.042667 0 0 1 29.866666 34.133333l-27.733333 429.653333c-4.693333 66.56-10.666667 148.906667-159.573333 148.906667z" p-id="13599"></path><path d="M440.746667 736a32.213333 32.213333 0 0 1-32-32 32.213333 32.213333 0 0 1 32-32h142.08a32.213333 32.213333 0 0 1 32 32 32.213333 32.213333 0 0 1-32 32zM405.333333 565.333333a32.213333 32.213333 0 0 1-32-32 32.213333 32.213333 0 0 1 32-32h213.333334a32.213333 32.213333 0 0 1 32 32 32.213333 32.213333 0 0 1-32 32z" p-id="13600"></path></svg>