<svg fill="currentColor" class="icon" viewBox="0 0 1024 1024" xmlns="http://www.w3.org/2000/svg" width="24" height="24"><path d="M512 923.73a110.63 110.63 0 0 1-36.65-5.54C312.15 862.2 53.33 664.1 53.33 370.77a270.17 270.17 0 0 1 269.23-270.5A264.53 264.53 0 0 1 512 178.77a264.79 264.79 0 0 1 189.44-78.5 270.17 270.17 0 0 1 269.23 270.5c0 293.34-258.82 491.48-421.98 547.42a110.93 110.93 0 0 1-36.69 5.54zM322.56 164.27a206.08 206.08 0 0 0-205.23 206.5c0 292.06 280.58 453.68 378.84 487.26a67.41 67.41 0 0 0 32.04 0c98.14-33.75 378.84-195.67 378.84-487.26a206.08 206.08 0 0 0-205.18-206.5 202.07 202.07 0 0 0-163.84 82.77 33.02 33.02 0 0 1-51.2 0 203.86 203.86 0 0 0-164.27-82.77z"/></svg>