<?xml version="1.0" standalone="no"?><!DOCTYPE svg PUBLIC "-//W3C//DTD SVG 1.1//EN" "http://www.w3.org/Graphics/SVG/1.1/DTD/svg11.dtd"><svg fill="currentColor" t="1729911087151" class="icon" viewBox="0 0 1024 1024" version="1.1" xmlns="http://www.w3.org/2000/svg" p-id="31191" xmlns:xlink="http://www.w3.org/1999/xlink" width="24" height="24"><path d="M512 970.666667A458.666667 458.666667 0 1 1 970.666667 512 459.178667 459.178667 0 0 1 512 970.666667z m0-853.333334A394.666667 394.666667 0 1 0 906.666667 512 395.093333 395.093333 0 0 0 512 117.333333z"  p-id="31192"></path><path d="M480 554.88v-8.96a99.285333 99.285333 0 0 1 49.92-83.2c15.786667-10.666667 20.906667-17.92 20.906667-29.013333a38.826667 38.826667 0 1 0-77.653334 0 32.213333 32.213333 0 0 1-32 32 32.213333 32.213333 0 0 1-32-32 102.826667 102.826667 0 1 1 205.653334 0 97.877333 97.877333 0 0 1-49.066667 81.92c-16.64 11.093333-21.76 18.346667-21.76 30.293333v8.96a32 32 0 0 1-64 0zM480 661.12a32.213333 32.213333 0 0 1 32-32 32 32 0 1 1-32 32z" p-id="31193"></path></svg>