<svg fill="currentColor" width="24" height="24" viewBox="0 0 24 24" xmlns="http://www.w3.org/2000/svg">
<path d="M12.02 20.5299C9.68502 20.5337 7.36491 20.1588 5.14996 19.4199C4.75216 19.2935 4.38766 19.0797 4.08314 18.7942C3.77862 18.5087 3.54179 18.1587 3.38996 17.7699C3.24822 17.3793 3.19883 16.9611 3.24567 16.5482C3.29252 16.1353 3.43431 15.7389 3.65996 15.3899L4.80996 13.4799C5.0825 12.9632 5.23946 12.3933 5.26996 11.8099V8.91992C5.26996 7.12971 5.98112 5.41282 7.24699 4.14695C8.51286 2.88108 10.2298 2.16992 12.02 2.16992C13.8102 2.16992 15.5271 2.88108 16.7929 4.14695C18.0588 5.41282 18.77 7.12971 18.77 8.91992V11.8099C18.804 12.3956 18.9596 12.9677 19.227 13.4899L20.367 15.3899C20.5796 15.7448 20.7099 16.1429 20.7481 16.5548C20.7864 16.9667 20.7317 17.382 20.588 17.7699C20.4466 18.1567 20.2192 18.5062 19.923 18.7923C19.6268 19.0783 19.2694 19.2932 18.878 19.4209C16.6673 20.1602 14.351 20.5348 12.02 20.5299ZM12.02 3.66992C10.6281 3.67151 9.29363 4.22514 8.3094 5.20937C7.32518 6.19359 6.77155 7.52802 6.76996 8.91992V11.8099C6.73571 12.6637 6.50653 13.4984 6.09996 14.2499L4.94996 16.1599C4.84268 16.318 4.77333 16.4986 4.74732 16.6879C4.7213 16.8771 4.73931 17.0698 4.79996 17.2509C4.8728 17.4293 4.98544 17.5888 5.12929 17.717C5.27314 17.8453 5.44439 17.9389 5.62996 17.9909C7.69245 18.6848 9.85387 19.0394 12.03 19.0409C14.2044 19.039 16.3641 18.6844 18.425 17.9909C18.6019 17.9324 18.7632 17.8344 18.8966 17.7043C19.0301 17.5742 19.1321 17.4154 19.195 17.2399C19.2601 17.0639 19.285 16.8755 19.2677 16.6886C19.2503 16.5017 19.1913 16.321 19.095 16.1599L17.945 14.2499C17.5385 13.4947 17.3093 12.6569 17.275 11.7999V8.91992C17.2734 7.52716 16.7191 6.19197 15.7337 5.2076C14.7484 4.22324 13.4127 3.67019 12.02 3.66992Z"/>
<path d="M13.67 3.90976C13.3939 3.83273 13.1134 3.77262 12.83 3.72976C12.0131 3.61702 11.1816 3.67836 10.39 3.90976C10.2555 3.95149 10.1119 3.95419 9.9759 3.91753C9.83991 3.88087 9.71712 3.80636 9.62181 3.70266C9.52649 3.59897 9.46257 3.47035 9.43747 3.33175C9.41237 3.19316 9.42712 3.05029 9.48002 2.91976C9.67881 2.40659 10.0284 1.96567 10.4827 1.65507C10.937 1.34447 11.4747 1.17876 12.025 1.17976C12.5766 1.17578 13.1163 1.34025 13.572 1.65117C14.0277 1.96209 14.3776 2.40467 14.575 2.91976C14.6254 3.05013 14.6389 3.19181 14.6142 3.32936C14.5895 3.46691 14.5275 3.59503 14.435 3.69976C14.3628 3.77561 14.2759 3.836 14.1797 3.87726C14.0834 3.91851 13.9798 3.93978 13.875 3.93976C13.8056 3.93915 13.7367 3.92906 13.67 3.90976ZM9.37002 21.7098C8.66785 21.0063 8.27242 20.0537 8.27002 19.0598H9.77002C9.77218 19.656 10.0093 20.2273 10.43 20.6498C10.8525 21.0704 11.4238 21.3076 12.02 21.3098C12.6165 21.309 13.1883 21.0717 13.6101 20.6499C14.0319 20.2281 14.2692 19.6563 14.27 19.0598H15.77C15.7698 20.0542 15.3746 21.0079 14.6714 21.7111C13.9682 22.4143 13.0145 22.8095 12.02 22.8098C11.0261 22.8074 10.0735 22.4119 9.37002 21.7098Z"/>
<path d="M1.2177 22.2613C1.07822 22.1202 1 21.9297 1 21.7313C1 21.5329 1.07822 21.3424 1.2177 21.2013L21.2177 1.20129C21.3599 1.06881 21.5479 0.996689 21.7422 1.00012C21.9365 1.00355 22.1219 1.08226 22.2593 1.21967C22.3967 1.35708 22.4754 1.54247 22.4789 1.73677C22.4823 1.93107 22.4102 2.11912 22.2777 2.26129L2.2777 22.2613C2.2082 22.3311 2.12561 22.3864 2.03466 22.4242C1.94371 22.462 1.84619 22.4815 1.7477 22.4815C1.64921 22.4815 1.5517 22.462 1.46075 22.4242C1.36979 22.3864 1.2872 22.3311 1.2177 22.2613Z"/>
</svg>
