<svg fill="currentColor" class="icon" viewBox="0 0 1024 1024" xmlns="http://www.w3.org/2000/svg" width="24" height="24"><path d="M475.73 646.49a32.17 32.17 0 0 1 0-45.23l86.62-86.61-86.62-86.75a32 32 0 0 1 45.23-45.18l109.23 109.23a32.17 32.17 0 0 1 0 45.22L520.96 646.5a30.93 30.93 0 0 1-22.61 9.38 31.66 31.66 0 0 1-22.62-9.38z"/><path d="M170.67 546.56a32.21 32.21 0 0 1-32-32 32.21 32.21 0 0 1 32-32h433.92a32.21 32.21 0 0 1 32 32 32.21 32.21 0 0 1-32 32z"/><path d="M480 853.33a32.21 32.21 0 0 1 32-32A295.9 295.9 0 0 0 821.33 512 295.9 295.9 0 0 0 512 202.67a32.21 32.21 0 0 1-32-32 32.21 32.21 0 0 1 32-32A357.3 357.3 0 0 1 885.33 512 357.3 357.3 0 0 1 512 885.33a32.21 32.21 0 0 1-32-32z"/></svg>