<?xml version="1.0" standalone="no"?><!DOCTYPE svg PUBLIC "-//W3C//DTD SVG 1.1//EN" "http://www.w3.org/Graphics/SVG/1.1/DTD/svg11.dtd"><svg fill="currentColor" t="1729756213796" class="icon" viewBox="0 0 1024 1024" version="1.1" xmlns="http://www.w3.org/2000/svg" p-id="14589" xmlns:xlink="http://www.w3.org/1999/xlink" width="24" height="24"><path d="M512 970.581333a147.370667 147.370667 0 0 1-71.210667-17.493333L238.933333 836.693333c-83.328-56.106667-89.173333-66.218667-89.173333-154.88v-211.584c0-88.661333 5.717333-98.688 87.466667-153.6l203.946666-117.802666a143.744 143.744 0 0 1 71.04-17.578667 143.914667 143.914667 0 0 1 71.04 17.578667l201.813334 116.522666c83.370667 56.106667 89.173333 66.432 89.173333 154.88v211.626667c0 88.618667-5.717333 98.688-87.466667 153.6l-203.946666 117.76a140.501333 140.501333 0 0 1-70.826667 17.365333z m0-725.333333a80.64 80.64 0 0 0-39.253333 9.002667L270.933333 370.773333c-57.173333 38.826667-57.173333 38.826667-57.173333 99.413334v211.626666c0 60.586667 0 60.586667 59.306667 100.693334l200.106666 115.2a80.426667 80.426667 0 0 0 39.253334 8.874666 80.426667 80.426667 0 0 0 39.04-8.96l201.770666-116.48c57.173333-38.826667 57.173333-38.826667 57.173334-99.413333v-211.498667c0-60.586667 0-60.586667-59.306667-100.693333l-200.277333-115.2a77.269333 77.269333 0 0 0-38.826667-9.088z" p-id="14590"></path><path d="M714.666667 325.546667V213.333333c0-67.413333-28.586667-96-96-96h-213.333334c-67.413333 0-96 28.586667-96 96v109.226667a32 32 0 1 1-64 0V213.333333A144.256 144.256 0 0 1 405.333333 53.333333h213.333334A144.256 144.256 0 0 1 778.666667 213.333333v112.213334a32 32 0 0 1-64 0zM442.496 752.597333a59.136 59.136 0 0 1-35.072-11.050666 65.194667 65.194667 0 0 1-24.661333-58.026667l2.517333-44.8-28.544-34.56a64.64 64.64 0 0 1-13.653333-61.866667 64.682667 64.682667 0 0 1 47.36-41.386666l43.52-11.093334 24.32-37.973333a62.762667 62.762667 0 0 1 107.946666 0l24.362667 37.973333 43.52 11.093334a64.554667 64.554667 0 0 1 47.317333 41.386666 65.194667 65.194667 0 0 1-14.08 61.44l-28.586666 34.56 2.56 44.8a66.261333 66.261333 0 0 1-24.789334 58.026667 60.032 60.032 0 0 1-34.986666 11.093333 73.088 73.088 0 0 1-27.733334-5.546666l-41.813333-16.213334-41.813333 16.64a74.965333 74.965333 0 0 1-27.690667 5.504z m69.546667-86.016a64.725333 64.725333 0 0 1 23.466666 4.266667l41.813334 16.64-2.56-44.928a69.162667 69.162667 0 0 1 14.464-44.8l28.629333-34.56-43.562667-11.093333a70.016 70.016 0 0 1-37.930666-27.306667l-23.936-37.546667-24.32 37.546667a68.906667 68.906667 0 0 1-37.973334 27.733333l-43.946666 10.666667 28.586666 34.56a67.626667 67.626667 0 0 1 14.506667 44.8l-2.517333 44.8 41.813333-16.64a64.981333 64.981333 0 0 1 23.466667-4.138667z"  p-id="14591"></path></svg>