<?xml version="1.0" standalone="no"?><!DOCTYPE svg PUBLIC "-//W3C//DTD SVG 1.1//EN" "http://www.w3.org/Graphics/SVG/1.1/DTD/svg11.dtd"><svg fill="currentColor" t="1729785252614" class="icon" viewBox="0 0 1024 1024" version="1.1" xmlns="http://www.w3.org/2000/svg" p-id="15671" xmlns:xlink="http://www.w3.org/1999/xlink" width="24" height="24"><path d="M512 544A245.333333 245.333333 0 1 1 757.333333 298.666667 245.632 245.632 0 0 1 512 544z m0-426.666667A181.333333 181.333333 0 1 0 693.333333 298.666667 181.546667 181.546667 0 0 0 512 117.333333z"  p-id="15672"></path><path d="M113.493333 938.666667c0-182.186667 178.773333-330.666667 398.506667-330.666667a464.810667 464.810667 0 0 1 126.293333 17.066667 31.872 31.872 0 1 1-17.066666 61.44 403.925333 403.925333 0 0 0-109.226667-14.506667c-184.32 0-334.506667 119.466667-334.506667 266.666667a32.213333 32.213333 0 0 1-32 32 32.213333 32.213333 0 0 1-32-32z"  p-id="15673"></path><path d="M768 970.666667a201.344 201.344 0 0 1-173.226667-98.56 196.266667 196.266667 0 0 1-29.44-104.106667 201.130667 201.130667 0 0 1 75.946667-158.293333A202.794667 202.794667 0 0 1 970.666667 768a198.954667 198.954667 0 0 1-29.44 104.533333 187.136 187.136 0 0 1-40.533334 47.786667A195.370667 195.370667 0 0 1 768 970.666667z m0-341.333334A139.306667 139.306667 0 0 0 629.333333 768a134.698667 134.698667 0 0 0 20.053334 71.253333A138.282667 138.282667 0 0 0 768 906.666667a135.722667 135.722667 0 0 0 90.88-34.56 123.733333 123.733333 0 0 0 27.349333-32.426667A134.613333 134.613333 0 0 0 906.666667 768 138.837333 138.837333 0 0 0 768 629.333333z"  p-id="15674"></path><path d="M720.981333 832.853333l-42.24-42.24a32 32 0 1 1 45.226667-45.141333l20.48 20.48 68.266667-63.146667a32 32 0 0 1 43.52 46.933334l-90.88 84.053333a33.365333 33.365333 0 0 1-21.76 8.533333 31.658667 31.658667 0 0 1-22.613334-9.472z" p-id="15675"></path></svg>