<?xml version="1.0" standalone="no"?><!DOCTYPE svg PUBLIC "-//W3C//DTD SVG 1.1//EN" "http://www.w3.org/Graphics/SVG/1.1/DTD/svg11.dtd"><svg fill="currentColor" t="1729854688440" class="icon" viewBox="0 0 1024 1024" version="1.1" xmlns="http://www.w3.org/2000/svg" p-id="16603" xmlns:xlink="http://www.w3.org/1999/xlink" width="24" height="24"><path d="M490.666667 928A437.333333 437.333333 0 1 1 928 490.666667 437.845333 437.845333 0 0 1 490.666667 928z m0-810.666667a373.333333 373.333333 0 1 0 373.333333 373.333334 373.76 373.76 0 0 0-373.333333-373.333334z" p-id="16604"></path><path d="M916.053333 961.28l-85.333333-85.333333a32 32 0 0 1 45.269333-45.226667l85.333334 85.333333a32.170667 32.170667 0 0 1 0 45.226667 31.914667 31.914667 0 0 1-45.226667 0z"  p-id="16605"></path></svg>