<?xml version="1.0" standalone="no"?><!DOCTYPE svg PUBLIC "-//W3C//DTD SVG 1.1//EN" "http://www.w3.org/Graphics/SVG/1.1/DTD/svg11.dtd"><svg fill="currentColor" t="1750836883306" class="icon" viewBox="0 0 1024 1024" version="1.1" xmlns="http://www.w3.org/2000/svg" p-id="13941" xmlns:xlink="http://www.w3.org/1999/xlink" width="24" height="24"><path d="M406.656 954.88a116.053333 116.053333 0 0 1-60.586667-102.4v-228.266667a136.533333 136.533333 0 0 0-27.306666-70.4l-162.133334-170.24a173.952 173.952 0 0 1-47.786666-108.373333V176.213333a119.168 119.168 0 0 1 118.186666-122.453333h568.746667a118.186667 118.186667 0 0 1 118.186667 118.186667v94.72a192.426667 192.426667 0 0 1-52.48 121.6 32 32 0 0 1-45.226667-45.226667 130.773333 130.773333 0 0 0 33.706667-76.373333V171.946667a54.272 54.272 0 0 0-54.186667-54.186667H227.456a55.850667 55.850667 0 0 0-54.186667 58.453333v98.986667a113.024 113.024 0 0 0 29.44 63.573333l164.266667 172.8a196.906667 196.906667 0 0 1 43.093333 112.64v228.266667a52.053333 52.053333 0 0 0 27.733334 46.506667 57.002667 57.002667 0 0 0 57.173333-0.426667l59.733333-38.4a32.128 32.128 0 0 1 34.56 54.186667l-60.16 38.826666a122.112 122.112 0 0 1-62.72 17.493334 120.362667 120.362667 0 0 1-59.733333-15.786667z" p-id="13942"></path><path d="M720.170667 864a234.666667 234.666667 0 0 1-200.96-113.92 229.077333 229.077333 0 0 1-33.706667-120.746667 234.666667 234.666667 0 0 1 469.333333 0 235.648 235.648 0 0 1-234.666666 234.666667z m0-405.333333a170.666667 170.666667 0 0 0-170.666667 170.666666 165.248 165.248 0 0 0 24.746667 87.466667 170.666667 170.666667 0 0 0 145.92 83.2 167.637333 167.637333 0 0 0 145.92-82.773333 168.192 168.192 0 0 0 24.746666-87.893334 170.666667 170.666667 0 0 0-170.666666-170.666666z" p-id="13943"></path><path d="M751.829333 704.853333l-107.093333-107.136a32 32 0 0 1 45.226667-45.184l107.093333 107.093334a32.170667 32.170667 0 0 1 0 45.226666 30.293333 30.293333 0 0 1-22.613333 9.386667 31.658667 31.658667 0 0 1-22.613334-9.386667z" p-id="13944"></path><path d="M643.882667 706.133333a32.170667 32.170667 0 0 1 0-45.226666l107.093333-107.093334a32 32 0 0 1 45.226667 45.226667l-107.093334 107.093333a31.914667 31.914667 0 0 1-45.226666 0z" fill="#292D32" p-id="13945"></path><path d="M466.389333 970.666667a121.6 121.6 0 0 1-59.306666-15.36 116.821333 116.821333 0 0 1-60.586667-102.826667v-228.266667a134.698667 134.698667 0 0 0-27.733333-70.442666l-162.133334-170.197334a176.896 176.896 0 0 1-47.786666-108.373333V175.786667a119.082667 119.082667 0 0 1 118.186666-122.453334h569.173334a118.314667 118.314667 0 0 1 118.186666 118.186667v94.72a194.986667 194.986667 0 0 1-52.053333 121.6l-76.8 67.84a33.365333 33.365333 0 0 1-28.586667 7.253333 146.688 146.688 0 0 0-36.693333-4.266666 170.666667 170.666667 0 0 0-170.666667 170.666666 168.192 168.192 0 0 0 24.746667 87.893334 163.968 163.968 0 0 0 53.333333 54.613333 32.426667 32.426667 0 0 1 15.36 27.306667v14.506666a126.848 126.848 0 0 1-54.613333 101.12l-58.88 37.973334a119.466667 119.466667 0 0 1-63.146667 17.92z m-238.933333-853.333334a55.850667 55.850667 0 0 0-54.186667 58.453334v99.413333a114.090667 114.090667 0 0 0 29.866667 64L367.402667 512a197.205333 197.205333 0 0 1 43.52 112.64v228.266667a53.802667 53.802667 0 0 0 27.733333 46.933333 58.410667 58.410667 0 0 0 28.416 7.466667 54.016 54.016 0 0 0 28.330667-7.893334l59.733333-38.4a64.768 64.768 0 0 0 23.893333-43.946666 235.52 235.52 0 0 1-93.44-186.453334 234.922667 234.922667 0 0 1 234.666667-234.666666 228.437333 228.437333 0 0 1 34.986667 2.56l63.146666-55.893334a132.821333 132.821333 0 0 0 32.426667-75.477333V172.373333a54.229333 54.229333 0 0 0-54.186667-54.186666H227.456z" p-id="13946"></path></svg>