<svg fill="currentColor" class="icon" viewBox="0 0 1024 1024" xmlns="http://www.w3.org/2000/svg" width="32" height="32"><path d="M512 970.67A458.67 458.67 0 1 1 970.67 512 459.18 459.18 0 0 1 512 970.67zm0-853.34A394.67 394.67 0 1 0 906.67 512 395.1 395.1 0 0 0 512 117.33z" /><path d="M512 714.67A202.67 202.67 0 1 1 714.67 512 202.92 202.92 0 0 1 512 714.67zm0-341.34A138.67 138.67 0 1 0 650.67 512 138.84 138.84 0 0 0 512 373.33z" fill="#292D32"/><path d="M896.43 372.44a880.47 880.47 0 0 0-377.6 0 31.87 31.87 0 0 1-13.66-62.3 939.18 939.18 0 0 1 404.91 0 32.04 32.04 0 0 1 24.32 37.98 31.53 31.53 0 0 1-31.15 25.17 37.33 37.33 0 0 1-6.82-.85zm-556.38 245.8A1056.55 1056.55 0 0 1 139.1 271.79l29.44-13.23 30.3-10.24.85 2.56a989.87 989.87 0 0 0 189.01 325.55 32.26 32.26 0 0 1-2.98 45.22 34.47 34.47 0 0 1-21.34 7.68 32.51 32.51 0 0 1-24.32-11.09zM442.88 960a31.83 31.83 0 0 1-2-45.23A883.8 883.8 0 0 0 628.6 591.36a33.83 33.83 0 0 1 40.96-22.19 30.93 30.93 0 0 1 21.33 38.4A953.39 953.39 0 0 1 488.66 958.3a36.1 36.1 0 0 1-24.32 9.82 31.06 31.06 0 0 1-21.46-8.11z" /></svg>