<svg fill="currentColor" class="icon" viewBox="0 0 1024 1024" xmlns="http://www.w3.org/2000/svg" width="24" height="24"><path d="M682.67 970.67H341.33C185.6 970.67 96 881.07 96 725.33V298.67c0-155.74 89.6-245.34 245.33-245.34h341.34C838.4 53.33 928 142.93 928 298.67v426.66c0 155.74-89.6 245.34-245.33 245.34zM341.33 117.33C219.31 117.33 160 176.64 160 298.67v426.66c0 122.03 59.3 181.34 181.33 181.34h341.34c122.02 0 181.33-59.31 181.33-181.34V298.67c0-122.03-59.3-181.34-181.33-181.34z"/><path d="M704 394.67a117.25 117.25 0 0 1-117.33-117.34V192a32.21 32.21 0 0 1 32-32 32.21 32.21 0 0 1 32 32v85.33A53.33 53.33 0 0 0 704 330.67h85.33a32 32 0 0 1 0 64zm-362.67 192a32.21 32.21 0 0 1-32-32 32.21 32.21 0 0 1 32-32H512a32.21 32.21 0 0 1 32 32 32.21 32.21 0 0 1-32 32zm0 170.66a32.21 32.21 0 0 1-32-32 32.21 32.21 0 0 1 32-32h341.34a32.21 32.21 0 0 1 32 32 32.21 32.21 0 0 1-32 32z"/></svg>