<svg fill="currentColor" class="icon" viewBox="0 0 1024 1024" xmlns="http://www.w3.org/2000/svg" width="24" height="24"><path d="M512 970.45a164.95 164.95 0 0 1-83.16-22.14L175.4 801.96a167.72 167.72 0 0 1-83.24-144.04V366.08a167.72 167.72 0 0 1 83.2-144.21L428.8 75.52a165.03 165.03 0 0 1 83.03-22.4 166.74 166.74 0 0 1 83.37 22.4l253.44 146.35a167.77 167.77 0 0 1 83.2 144.21v291.84a167.77 167.77 0 0 1-83.2 144.21L595.2 948.48a165.2 165.2 0 0 1-83.2 21.97zm0-853.33a103.68 103.68 0 0 0-51.2 13.65L207.36 277.33a103.04 103.04 0 0 0-51.2 88.75v291.84a103.04 103.04 0 0 0 51.2 88.75L460.8 893a102.1 102.1 0 0 0 102.4 0l253.44-146.34a103.04 103.04 0 0 0 51.2-88.75V366.08a103.04 103.04 0 0 0-51.2-88.75L563.2 131a103.77 103.77 0 0 0-51.2-13.87z"/><path d="M512 501.33a131.41 131.41 0 1 1 131.41-131.41A131.54 131.54 0 0 1 512 501.33zm0-198.78a67.41 67.41 0 1 0 67.41 67.37A67.46 67.46 0 0 0 512 302.51zm138.67 408.28c0-58.88-62.3-107.1-138.67-107.1s-138.67 48.22-138.67 107.1a32.21 32.21 0 0 1-32 32 32.21 32.21 0 0 1-32-32c0-94.3 90.88-171.1 202.67-171.1s202.67 76.8 202.67 171.1a32 32 0 0 1-64 0z"/></svg>