<svg fill="currentColor" class="icon" viewBox="0 0 1024 1024" xmlns="http://www.w3.org/2000/svg" width="24" height="24"><path d="M384 970.67c-231.68 0-330.67-98.99-330.67-330.67V384c0-231.68 98.99-330.67 330.67-330.67h85.33a32.21 32.21 0 0 1 32 32 32.21 32.21 0 0 1-32 32H384c-196.7 0-266.67 69.98-266.67 266.67v256c0 196.7 69.98 266.67 266.67 266.67h256c196.7 0 266.67-69.98 266.67-266.67v-85.33a32 32 0 0 1 64 0V640c0 231.68-98.99 330.67-330.67 330.67z"/><path d="M362.7 754.77a95.62 95.62 0 0 1-67.4-26.45 96.17 96.17 0 0 1-25.13-83.16l18.34-128.42a147.07 147.07 0 0 1 37.08-74.24L661.8 106.28a184.75 184.75 0 0 1 128-63.66 184.75 184.75 0 0 1 128 63.66 178.43 178.43 0 0 1 63.15 141.23 189.48 189.48 0 0 1-63.15 114.35L581.6 698.03a147.46 147.46 0 0 1-74.24 37.12l-128.43 18.34a72.23 72.23 0 0 1-16.21 1.28zm426.68-648.19a120.83 120.83 0 0 0-82.22 44.67L370.94 487.47a86.95 86.95 0 0 0-19.2 37.97L333.4 653.87a33.66 33.66 0 0 0 7.25 29.01 29.87 29.87 0 0 0 21.76 7.77 53.03 53.03 0 0 0 7.3-.52l128.42-18.3a85.33 85.33 0 0 0 37.98-19.2l336.21-336.21a130.69 130.69 0 0 0 44.37-75.52 118.44 118.44 0 0 0-44.37-90.03 122.67 122.67 0 0 0-82.94-44.08z"/><path d="M838.36 418.1A338.65 338.65 0 0 1 605.4 185.12a32.43 32.43 0 0 1 22.18-39.68 31.79 31.79 0 0 1 39.26 22.19 274.13 274.13 0 0 0 188.58 188.58 32.21 32.21 0 0 1 22.2 39.68 31.4 31.4 0 0 1-30.73 23.47 27.52 27.52 0 0 1-8.53-1.28z"/></svg>