<?xml version="1.0" standalone="no"?><!DOCTYPE svg PUBLIC "-//W3C//DTD SVG 1.1//EN" "http://www.w3.org/Graphics/SVG/1.1/DTD/svg11.dtd"><svg fill="currentColor" t="1730086021960" class="icon" viewBox="0 0 1024 1024" version="1.1" xmlns="http://www.w3.org/2000/svg" p-id="45803" xmlns:xlink="http://www.w3.org/1999/xlink" width="24" height="24"><path d="M383.146667 930.517333l-183.466667-136.96a238.293333 238.293333 0 0 1-86.613333-172.330666V303.744a179.584 179.584 0 0 1 110.08-158.72l212.906666-79.744a246.784 246.784 0 0 1 151.04 0l213.333334 79.786667a179.584 179.584 0 0 1 110.08 158.72v146.432a32 32 0 0 1-64 0V303.744a117.632 117.632 0 0 0-68.693334-98.986667l-212.906666-79.786666a180.352 180.352 0 0 0-106.24 0l-212.906667 80.213333A116.565333 116.565333 0 0 0 177.066667 304.213333v317.013334a176.384 176.384 0 0 0 60.586666 121.173333l183.466667 136.96a153.6 153.6 0 0 0 90.453333 27.392 32.213333 32.213333 0 0 1 32 32 31.872 31.872 0 0 1-31.573333 32 215.253333 215.253333 0 0 1-128.853333-40.234667z"  p-id="45804"></path><path d="M682.666667 885.333333A202.666667 202.666667 0 1 1 885.333333 682.666667 202.922667 202.922667 0 0 1 682.666667 885.333333z m0-340.906666a138.666667 138.666667 0 1 0 138.666666 138.666666A138.837333 138.837333 0 0 0 682.666667 544.426667zM887.466667 937.770667a27.136 27.136 0 0 1-7.68-2.56 32.298667 32.298667 0 0 1-7.68-3.84l-6.4-4.992a44.885333 44.885333 0 0 1-12.373334-30.421334 42.666667 42.666667 0 0 1 3.413334-16.213333 49.28 49.28 0 0 1 8.96-14.037333 44.672 44.672 0 0 1 60.586666 0 49.28 49.28 0 0 1 8.96 14.08 42.666667 42.666667 0 0 1 3.413334 16.170666 44.885333 44.885333 0 0 1-12.373334 30.293334 44.885333 44.885333 0 0 1-30.293333 12.373333 57.813333 57.813333 0 0 1-8.533333-0.853333z"  p-id="45805"></path></svg>