<?xml version="1.0" standalone="no"?><!DOCTYPE svg PUBLIC "-//W3C//DTD SVG 1.1//EN" "http://www.w3.org/Graphics/SVG/1.1/DTD/svg11.dtd"><svg fill="currentColor" t="1729918222976" class="icon" viewBox="0 0 1024 1024" version="1.1" xmlns="http://www.w3.org/2000/svg" p-id="31504" xmlns:xlink="http://www.w3.org/1999/xlink" width="24" height="24"><path d="M512 544A245.333333 245.333333 0 1 1 757.333333 298.666667 245.632 245.632 0 0 1 512 544z m0-426.666667A181.333333 181.333333 0 1 0 693.333333 298.666667 181.546667 181.546667 0 0 0 512 117.333333z"  p-id="31505"></path><path d="M113.493333 938.666667c0-182.186667 178.773333-330.666667 398.506667-330.666667a464.810667 464.810667 0 0 1 126.293333 17.066667 31.872 31.872 0 1 1-17.066666 61.44 403.925333 403.925333 0 0 0-109.226667-14.506667c-184.32 0-334.506667 119.466667-334.506667 266.666667a32.213333 32.213333 0 0 1-32 32 32.213333 32.213333 0 0 1-32-32z"  p-id="31506"></path><path d="M768 970.666667a200.789333 200.789333 0 0 1-135.253333-52.48 182.698667 182.698667 0 0 1-38.4-46.08 199.424 199.424 0 0 1-29.013334-104.106667A202.453333 202.453333 0 0 1 768 565.333333a200.277333 200.277333 0 0 1 150.613333 67.413334A202.325333 202.325333 0 0 1 970.666667 768a178.645333 178.645333 0 0 1-6.4 47.786667 182.741333 182.741333 0 0 1-23.466667 56.746666 200.533333 200.533333 0 0 1-172.8 98.133334z m0-341.333334A138.368 138.368 0 0 0 629.333333 768a134.698667 134.698667 0 0 0 20.053334 71.253333 123.733333 123.733333 0 0 0 26.026666 31.616 136.533333 136.533333 0 0 0 92.586667 36.266667 138.837333 138.837333 0 0 0 118.613333-67.029333 134.229333 134.229333 0 0 0 15.786667-38.826667 123.733333 123.733333 0 0 0 4.266667-32.853333 138.24 138.24 0 0 0-35.84-92.586667A134.912 134.912 0 0 0 768 629.333333z"  p-id="31507"></path><path d="M704.426667 799.146667a32.213333 32.213333 0 0 1-32-32 32.213333 32.213333 0 0 1 32-32h127.573333a32.213333 32.213333 0 0 1 32 32 32.213333 32.213333 0 0 1-32 32z"  p-id="31508"></path><path d="M736 832.426667v-127.573334a32.213333 32.213333 0 0 1 32-32 32.213333 32.213333 0 0 1 32 32v127.573334a32 32 0 0 1-64 0z"  p-id="31509"></path></svg>