<?xml version="1.0" standalone="no"?><!DOCTYPE svg PUBLIC "-//W3C//DTD SVG 1.1//EN" "http://www.w3.org/Graphics/SVG/1.1/DTD/svg11.dtd"><svg fill="currentColor" t="1729785734066" class="icon" viewBox="0 0 1024 1024" version="1.1" xmlns="http://www.w3.org/2000/svg" p-id="16292" xmlns:xlink="http://www.w3.org/1999/xlink" width="24" height="24"><path d="M512 970.666667A458.666667 458.666667 0 1 1 970.666667 512 459.178667 459.178667 0 0 1 512 970.666667z m0-853.333334A394.666667 394.666667 0 1 0 906.666667 512 395.093333 395.093333 0 0 0 512 117.333333z"  p-id="16293"></path><path d="M368.64 655.36a32.170667 32.170667 0 0 1 0-45.226667l241.493333-241.450666a32 32 0 1 1 45.226667 45.226666l-241.493333 241.493334a30.933333 30.933333 0 0 1-22.613334 9.386666 31.658667 31.658667 0 0 1-22.613333-9.429333z"  p-id="16294"></path><path d="M610.133333 655.36L368.64 413.866667a32 32 0 0 1 45.184-45.184l241.493333 241.493333a32.170667 32.170667 0 0 1 0 45.226667 31.914667 31.914667 0 0 1-45.226666 0z"  p-id="16295"></path></svg>