<svg fill="currentColor" class="icon" viewBox="0 0 1024 1024" xmlns="http://www.w3.org/2000/svg" width="24" height="24"><path d="M404.05 651.95a31.79 31.79 0 0 1-22.61-9.39 184.62 184.62 0 1 1 261.12-261.12 31.87 31.87 0 0 1 0 45.23l-215.9 215.89a31.79 31.79 0 0 1-22.6 9.39zM512 391.25a120.79 120.79 0 0 0-104.96 180.48l164.7-164.69A120.58 120.58 0 0 0 512 391.25z"/><path d="M218.03 782.08A619.26 619.26 0 0 1 96.43 640a258.47 258.47 0 0 1 0-256C200.53 221.01 352 127.15 512 127.15a444.37 444.37 0 0 1 267.52 93.44 32 32 0 0 1-38.4 51.2A379.73 379.73 0 0 0 512 191.15c-137.81 0-269.65 82.77-361.81 227.41a193.88 193.88 0 0 0 0 186.88 585.81 585.81 0 0 0 109.22 128 32.26 32.26 0 0 1 3.42 45.23 30.98 30.98 0 0 1-23.9 11.09 32.47 32.47 0 0 1-20.9-7.68zm128.42 80.64a31.91 31.91 0 1 1 24.75-58.88 358.1 358.1 0 0 0 140.37 29.01c137.82 0 269.66-82.77 361.82-227.41a193.88 193.88 0 0 0 0-186.88 607.74 607.74 0 0 0-43.1-59.73 32.43 32.43 0 0 1 4.7-45.23 32 32 0 0 1 45.22 4.7 678.1 678.1 0 0 1 47.36 65.7 258.47 258.47 0 0 1 0 256C823.47 802.99 672 896.85 512 896.85a421.3 421.3 0 0 1-165.55-34.13z"/><path d="M509.87 668.12a31.4 31.4 0 0 1 25.6-37.12 120.32 120.32 0 0 0 94.72-94.68 32.34 32.34 0 0 1 37.54-25.6 32.04 32.04 0 0 1 25.6 37.55 183.47 183.47 0 0 1-145.92 145.92 27.95 27.95 0 0 0-5.97 0 32.34 32.34 0 0 1-31.57-26.07zM62.72 961.28a32.17 32.17 0 0 1 0-45.23L381.4 597.33a32 32 0 0 1 45.22 45.23L107.9 961.28a31.91 31.91 0 0 1-45.22 0zm534.66-534.61a32.17 32.17 0 0 1 0-45.23L916.05 62.72a32 32 0 0 1 45.23 45.23L642.56 426.67a31.91 31.91 0 0 1-45.23 0z"/></svg>