<?xml version="1.0" standalone="no"?><!DOCTYPE svg PUBLIC "-//W3C//DTD SVG 1.1//EN" "http://www.w3.org/Graphics/SVG/1.1/DTD/svg11.dtd"><svg fill="currentColor" t="1729765660310" class="icon" viewBox="0 0 1024 1024" version="1.1" xmlns="http://www.w3.org/2000/svg" p-id="15054" xmlns:xlink="http://www.w3.org/1999/xlink" width="24" height="24"><path d="M256 544a32.213333 32.213333 0 0 1-32-32 32.213333 32.213333 0 0 1 32-32h512a32.213333 32.213333 0 0 1 32 32 32.213333 32.213333 0 0 1-32 32z"  p-id="15055"></path><path d="M480 768V256a32.213333 32.213333 0 0 1 32-32 32.213333 32.213333 0 0 1 32 32v512a32.213333 32.213333 0 0 1-32 32 32.213333 32.213333 0 0 1-32-32z" p-id="15056"></path></svg>