<svg fill="currentColor" class="icon" viewBox="0 0 1024 1024" xmlns="http://www.w3.org/2000/svg" width="24" height="24"><path d="M725.33 897.7H298.67A245.63 245.63 0 0 1 53.33 652.38V243.63c0-55.73 25.6-74.71 40.96-81.07a56.23 56.23 0 0 1 21.8-4.27 93.48 93.48 0 0 1 64.39 32.43l110.5 110.5a10.75 10.75 0 0 0 7.64 3.2 9.69 9.69 0 0 0 7.3-3.2l153.17-152.95a74.92 74.92 0 0 1 52.87-21.34 73.81 73.81 0 0 1 52.52 21.12l153.17 153.18a10.75 10.75 0 0 0 7.64 3.2 9.69 9.69 0 0 0 7.3-3.2l110.5-110.51a93.18 93.18 0 0 1 64.34-32.26 59.73 59.73 0 0 1 21.85 4.27c15.32 6.36 40.96 25.34 40.96 81.07v409.13a243.2 243.2 0 0 1-67.03 177.1 244.35 244.35 0 0 1-177.88 67.68zM119.9 223.58a59.73 59.73 0 0 0-2.51 20.06v409.13A181.55 181.55 0 0 0 298.7 834.13h426.67A169.94 169.94 0 0 0 906.67 652.8V243.63a59.26 59.26 0 0 0-2.52-19.63 64.94 64.94 0 0 0-15.83 12.37l-110.5 110.51A75 75 0 0 1 724.94 368a73.81 73.81 0 0 1-52.52-21.12L519.25 193.71a10.75 10.75 0 0 0-7.63-3.2 9.69 9.69 0 0 0-7.3 3.2L351.57 346.45a75 75 0 0 1-52.86 21.12 73.81 73.81 0 0 1-52.52-21.12l-110.51-110.5a70.27 70.27 0 0 0-15.79-12.38z"/></svg>