<svg fill="currentColor" class="icon" viewBox="0 0 1024 1024" xmlns="http://www.w3.org/2000/svg" width="24" height="24"><path d="M512 970.67A458.67 458.67 0 1 1 970.67 512 459.18 459.18 0 0 1 512 970.67zm0-853.34A394.67 394.67 0 1 0 906.67 512 395.1 395.1 0 0 0 512 117.33z"/><path d="M341.46 928a32.21 32.21 0 0 1-32-32 31.79 31.79 0 0 1 31.15-32 1258.24 1258.24 0 0 1 0-704 31.79 31.79 0 0 1-31.23-32 32.21 32.21 0 0 1 32.08-32h42.67a32.73 32.73 0 0 1 26.02 13.23 32.04 32.04 0 0 1 4.27 29.01 1192.45 1192.45 0 0 0 0 747.95 32.04 32.04 0 0 1-4.27 29.01 33.58 33.58 0 0 1-26.02 12.8zm288.3-1.7a31.79 31.79 0 0 1-20.05-40.54 1192.45 1192.45 0 0 0 0-747.95 32 32 0 0 1 60.58-20.48 1250.9 1250.9 0 0 1 0 788.06A31.74 31.74 0 0 1 640 928a28.67 28.67 0 0 1-10.24-1.7z"/><path d="M160 683.52a32 32 0 0 1-64-.85V640a32.73 32.73 0 0 1 13.23-26.03 32.04 32.04 0 0 1 29.01-4.26 1192.45 1192.45 0 0 0 747.95 0 32.04 32.04 0 0 1 29.01 4.26A31.57 31.57 0 0 1 928.43 640v42.67a32.21 32.21 0 0 1-32 32 31.79 31.79 0 0 1-32-31.15A1250.13 1250.13 0 0 1 512 733.87a1244.84 1244.84 0 0 1-352-50.35zm725.76-269.23a1192.45 1192.45 0 0 0-747.95 0 31.96 31.96 0 0 1-40.53-20.05 32.55 32.55 0 0 1 20.48-40.53 1250.9 1250.9 0 0 1 788.05 0 31.79 31.79 0 0 1 20.06 40.53A31.1 31.1 0 0 1 896 416a28.67 28.67 0 0 1-10.24-1.7z"/></svg>