<?xml version="1.0" standalone="no"?><!DOCTYPE svg PUBLIC "-//W3C//DTD SVG 1.1//EN" "http://www.w3.org/Graphics/SVG/1.1/DTD/svg11.dtd"><svg fill="currentColor" t="1730111680530" class="icon" viewBox="0 0 1024 1024" version="1.1" xmlns="http://www.w3.org/2000/svg" p-id="46424" xmlns:xlink="http://www.w3.org/1999/xlink" width="24" height="24"><path d="M507.776 495.786667a224.768 224.768 0 0 1-155.008-66.986667 219.050667 219.050667 0 0 1-62.165333-154.026667 221.44 221.44 0 1 1 229.546666 221.013334h-4.693333a19.669333 19.669333 0 0 0-3.712-0.298667 24.661333 24.661333 0 0 0-3.968 0.298667z m3.84-64.341334c2.517333 0 5.418667 0 8.106667 0.341334a158.293333 158.293333 0 1 0-13.653334 0 31.488 31.488 0 0 1 5.546667-0.341334z" p-id="46425"></path><path d="M519.253333 962.133333a418.133333 418.133333 0 0 1-231.253333-64 183.168 183.168 0 0 1-91.733333-151.424 185.002667 185.002667 0 0 1 91.733333-152.32 422.656 422.656 0 0 1 231.552-63.701333 419.498667 419.498667 0 0 1 230.954667 63.658667 184.021333 184.021333 0 0 1 91.733333 151.466666 184.874667 184.874667 0 0 1-91.733333 152.277334 420.138667 420.138667 0 0 1-231.253334 64.042666z m0-366.933333a356.522667 356.522667 0 0 0-195.84 52.906667 123.008 123.008 0 0 0-63.146666 98.986666 122.154667 122.154667 0 0 0 63.146666 98.133334 354.944 354.944 0 0 0 195.84 53.461333 354.944 354.944 0 0 0 195.84-53.418667 123.050667 123.050667 0 0 0 63.189334-98.986666 122.112 122.112 0 0 0-63.189334-98.133334 356.522667 356.522667 0 0 0-195.84-53.12z" p-id="46426"></path></svg>