<svg fill="currentColor" class="icon" viewBox="0 0 1024 1024" xmlns="http://www.w3.org/2000/svg" width="24" height="24"><path d="M721.54 646.49a32.17 32.17 0 0 1 0-45.23l86.6-86.61-86.6-86.75a32 32 0 0 1 45.18-45.18l109.23 109.23a32.17 32.17 0 0 1 0 45.22L766.72 646.5a31.91 31.91 0 0 1-45.23 0z"/><path d="M416.43 546.56a32.21 32.21 0 0 1-32-32 32.21 32.21 0 0 1 32-32h433.92a32.21 32.21 0 0 1 32 32 32.21 32.21 0 0 1-32 32z"/><path d="M128.43 512a357.3 357.3 0 0 1 373.33-373.33 32.21 32.21 0 0 1 32 32 32.21 32.21 0 0 1-32 32A295.9 295.9 0 0 0 192.43 512a295.9 295.9 0 0 0 309.33 309.33 32 32 0 0 1 0 64A357.3 357.3 0 0 1 128.43 512z"/></svg>