<svg fill="currentColor" class="icon" viewBox="0 0 1024 1024" xmlns="http://www.w3.org/2000/svg" width="24" height="24"><path d="M480 416.85V274.77a32.21 32.21 0 0 1 32-32 32.21 32.21 0 0 1 32 32v142.08a32 32 0 0 1-64 0z"/><path d="M512.9 868.27a1019.73 1019.73 0 0 1-324.27-52.44 126.68 126.68 0 0 1-81.07-75.52 128.47 128.47 0 0 1 12.38-110.08l54.18-90.45a193.07 193.07 0 0 0 22.62-81.07v-89.64a316.16 316.16 0 0 1 632.32 0v89.6a193.62 193.62 0 0 0 22.6 81.06l54.2 90.46a126.8 126.8 0 0 1-68.7 185.64 1008.43 1008.43 0 0 1-324.26 52.44zm0-750.94A252.46 252.46 0 0 0 260.7 369.5v89.6a254.17 254.17 0 0 1-31.58 113.88l-54.14 90.92a62.72 62.72 0 0 0-7.26 55.04 62.6 62.6 0 0 0 41.39 36.7 962 962 0 0 0 304.21 48.94 962 962 0 0 0 304.22-48.94 60.93 60.93 0 0 0 38.82-37.55 62.46 62.46 0 0 0-5.12-54.19l-54.18-90.45a254.08 254.08 0 0 1-31.62-113.92v-89.6A253.4 253.4 0 0 0 512.9 117.33z"/><path d="M389.12 925.87a175.23 175.23 0 0 1-51.2-122.88h64a110.55 110.55 0 0 0 32.43 77.65A110.55 110.55 0 0 0 512 913.07a110.34 110.34 0 0 0 110.08-110.08h64A174.25 174.25 0 0 1 512 977.07a175.23 175.23 0 0 1-122.88-51.2z"/></svg>