<?xml version="1.0" standalone="no"?><!DOCTYPE svg PUBLIC "-//W3C//DTD SVG 1.1//EN" "http://www.w3.org/Graphics/SVG/1.1/DTD/svg11.dtd"><svg fill="currentColor" t="1748533773446" class="icon" viewBox="0 0 1024 1024" version="1.1" xmlns="http://www.w3.org/2000/svg" p-id="42131" xmlns:xlink="http://www.w3.org/1999/xlink" width="24" height="24"><path d="M640 970.666667H384c-231.765333 0-330.666667-98.901333-330.666667-330.666667V384c0-231.765333 98.901333-330.666667 330.666667-330.666667h256c231.765333 0 330.666667 98.901333 330.666667 330.666667v256c0 231.765333-98.901333 330.666667-330.666667 330.666667z m-256-853.333334C187.136 117.333333 117.333333 187.136 117.333333 384v256c0 196.864 69.802667 266.666667 266.666667 266.666667h256c196.864 0 266.666667-69.802667 266.666667-266.666667V384c0-196.864-69.76-266.666667-266.666667-266.666667z" p-id="42132"></path><path d="M661.333333 821.333333a117.461333 117.461333 0 0 1-117.333333-117.333333v-384a117.333333 117.333333 0 1 1 234.666667 0v384a117.461333 117.461333 0 0 1-117.333334 117.333333z m0-554.666666a53.418667 53.418667 0 0 0-53.333333 53.333333v384a53.333333 53.333333 0 0 0 106.666667 0v-384a53.376 53.376 0 0 0-53.333334-53.333333zM362.666667 821.333333a117.504 117.504 0 0 1-117.333334-117.333333V554.666667a117.333333 117.333333 0 1 1 234.666667 0v149.333333a117.461333 117.461333 0 0 1-117.333333 117.333333z m0-320A53.418667 53.418667 0 0 0 309.333333 554.666667v149.333333a53.333333 53.333333 0 1 0 106.666667 0V554.666667a53.376 53.376 0 0 0-53.333333-53.333334z" p-id="42133"></path></svg>