<?xml version="1.0" standalone="no"?><!DOCTYPE svg PUBLIC "-//W3C//DTD SVG 1.1//EN" "http://www.w3.org/Graphics/SVG/1.1/DTD/svg11.dtd"><svg fill="currentColor" t="1729785578734" class="icon" viewBox="0 0 1024 1024" version="1.1" xmlns="http://www.w3.org/2000/svg" p-id="15983" xmlns:xlink="http://www.w3.org/1999/xlink" width="24" height="24"><path d="M512 970.666667A458.666667 458.666667 0 1 1 970.666667 512 459.178667 459.178667 0 0 1 512 970.666667z m0-853.333334A394.666667 394.666667 0 1 0 906.666667 512 395.093333 395.093333 0 0 0 512 117.333333z" p-id="15984"></path><path d="M480 554.666667V341.333333a32.213333 32.213333 0 0 1 32-32 32.213333 32.213333 0 0 1 32 32v213.333334a32.213333 32.213333 0 0 1-32 32 32.213333 32.213333 0 0 1-32-32zM495.786667 721.92a49.28 49.28 0 0 1-14.08-9.173333 44.032 44.032 0 0 1-8.96-14.08 42.666667 42.666667 0 0 1-3.413334-15.786667 42.666667 42.666667 0 0 1 3.413334-16.426667 49.28 49.28 0 0 1 8.96-14.08 49.28 49.28 0 0 1 14.08-8.96 42.666667 42.666667 0 0 1 32.426666 0 49.28 49.28 0 0 1 14.08 8.96 49.28 49.28 0 0 1 8.96 14.08 42.666667 42.666667 0 0 1 3.413334 16.426667 42.666667 42.666667 0 0 1-3.413334 16.213333 44.032 44.032 0 0 1-8.96 14.08 49.28 49.28 0 0 1-14.08 8.96 42.666667 42.666667 0 0 1-16.213333 3.413334 42.666667 42.666667 0 0 1-16.213333-3.626667z" p-id="15985"></path></svg>