<svg fill="currentColor" class="icon" viewBox="0 0 1024 1024" xmlns="http://www.w3.org/2000/svg" width="24" height="24"><path d="M236.37 832.85a97.4 97.4 0 0 1-67.8-25.6 101.59 101.59 0 0 1-29-86.61l15.78-138.24a152.96 152.96 0 0 1 37.12-79.36l350.3-370.77a193.32 193.32 0 0 1 137.6-71.43 198.78 198.78 0 0 1 133.71 63.75c92.54 87.42 95.15 178.73 7.68 271.31l-350.2 370.82a153.17 153.17 0 0 1-77.23 41.39l-137.35 23.46-7.5.56a153.43 153.43 0 0 1-13.1.72zm443.31-708.69a128.3 128.3 0 0 0-90.45 51.2l-350.3 371.2a97.8 97.8 0 0 0-20.05 42.67l-15.79 138.24a37.55 37.55 0 0 0 9.39 32.8 33.8 33.8 0 0 0 24.06 8.54 61.4 61.4 0 0 0 9.22-.72l137.34-23.47a94.63 94.63 0 0 0 41.4-22.19L774.77 351.7c52.74-56.15 72.07-108.41-5.12-180.9a135.34 135.34 0 0 0-89.98-46.64z"/><path d="M736.85 467.2a292.65 292.65 0 0 1-260.69-246.61 32.51 32.51 0 0 1 26.88-36.7 32.51 32.51 0 0 1 36.7 26.88 229.2 229.2 0 0 0 203.94 192.86 32.04 32.04 0 0 1 28.59 34.98 33.02 33.02 0 0 1-32.43 28.59zM128 970.67a32.21 32.21 0 0 1-32-32 32.21 32.21 0 0 1 32-32h768a32.21 32.21 0 0 1 32 32 32.21 32.21 0 0 1-32 32z"/></svg>