<svg fill="currentColor" class="icon" viewBox="0 0 1024 1024" xmlns="http://www.w3.org/2000/svg" width="24" height="24"><path d="M749.23 766.72H274.77c-169.68 0-221.44-51.71-221.44-221.44v-270.5c0-169.7 51.76-221.45 221.44-221.45H748.8c169.73 0 221.44 51.76 221.44 221.44v270.08c.21 89.6-13.74 141.74-46.72 174.94s-85.12 46.93-174.3 46.93zM274.77 117.33c-133.88 0-157.44 23.56-157.44 157.44v270.08c0 133.9 23.56 157.44 157.44 157.44H748.8c133.89 0 157.44-23.55 157.44-157.44V274.77c0-133.88-23.55-157.44-157.44-157.44z"/><path d="M480 938.67V734.72a32.21 32.21 0 0 1 32-32 32.21 32.21 0 0 1 32 32v203.95a32.21 32.21 0 0 1-32 32 32.21 32.21 0 0 1-32-32zm-394.67-352a32.21 32.21 0 0 1-32-32 32.21 32.21 0 0 1 32-32h853.34a32.21 32.21 0 0 1 32 32 32.21 32.21 0 0 1-32 32z"/><path d="M320 970.67a32.21 32.21 0 0 1-32-32 32.21 32.21 0 0 1 32-32h384a32.21 32.21 0 0 1 32 32 32.21 32.21 0 0 1-32 32z"/></svg>