<?xml version="1.0" standalone="no"?><!DOCTYPE svg PUBLIC "-//W3C//DTD SVG 1.1//EN" "http://www.w3.org/Graphics/SVG/1.1/DTD/svg11.dtd"><svg fill="currentColor" t="1729844909381" class="icon" viewBox="0 0 1024 1024" version="1.1" xmlns="http://www.w3.org/2000/svg" p-id="16448" xmlns:xlink="http://www.w3.org/1999/xlink" width="24" height="24"><path d="M298.666667 507.733333a32.213333 32.213333 0 0 1-32-32 32.213333 32.213333 0 0 1 32-32h256a32.213333 32.213333 0 0 1 32 32 32.213333 32.213333 0 0 1-32 32z" p-id="16449"></path><path d="M53.333333 475.733333V278.613333a189.568 189.568 0 0 1 189.44-189.44h239.786667a176 176 0 0 1 189.44 173.226667 32 32 0 0 1-64 0 113.92 113.92 0 0 0-125.44-109.226667H242.773333a125.653333 125.653333 0 0 0-125.44 125.44v197.12a32 32 0 0 1-64 0z" p-id="16450"></path><path d="M682.666667 934.4H256a202.88 202.88 0 0 1-202.666667-202.666667v-298.666666A202.922667 202.922667 0 0 1 256 230.4h426.666667a202.922667 202.922667 0 0 1 202.666666 202.666667v61.866666a32.426667 32.426667 0 0 1-32.042666 32H807.253333a52.608 52.608 0 0 0-38.4 15.786667l-0.426666 0.426667a54.485333 54.485333 0 0 0-14.506667 52.906666 60.8 60.8 0 0 0 59.733333 41.386667H853.333333a32.426667 32.426667 0 0 1 32.042667 32v61.866667A203.136 203.136 0 0 1 682.666667 934.4zM256 294.4a138.837333 138.837333 0 0 0-138.666667 138.666667v298.666666A138.837333 138.837333 0 0 0 256 870.4h426.666667a138.837333 138.837333 0 0 0 138.666666-138.666667v-29.866666h-7.68a123.989333 123.989333 0 0 1-121.6-88.746667 118.826667 118.826667 0 0 1 31.146667-115.2 116.736 116.736 0 0 1 84.053333-34.986667h14.08v-29.866666A138.837333 138.837333 0 0 0 682.666667 294.4z"  p-id="16451"></path><path d="M894.72 701.866667h-82.389333a122.88 122.88 0 0 1-124.117334-109.226667 117.376 117.376 0 0 1 34.944-95.146667 116.181333 116.181333 0 0 1 83.669334-34.56h87.466666a75.818667 75.818667 0 0 1 75.946667 75.52v87.893334a73.813333 73.813333 0 0 1-21.333333 53.034666 75.392 75.392 0 0 1-54.186667 22.485334z m-87.594667-174.933334a52.48 52.48 0 0 0-38.4 15.786667 53.632 53.632 0 0 0-16.64 44.373333 59.008 59.008 0 0 0 60.245334 50.773334h82.346666a11.904 11.904 0 0 0 11.946667-11.52v-87.893334a11.733333 11.733333 0 0 0-11.946667-11.52z" p-id="16452"></path></svg>