<?xml version="1.0" standalone="no"?><!DOCTYPE svg PUBLIC "-//W3C//DTD SVG 1.1//EN" "http://www.w3.org/Graphics/SVG/1.1/DTD/svg11.dtd"><svg fill="currentColor" t="1750836879476" class="icon" viewBox="0 0 1024 1024" version="1.1" xmlns="http://www.w3.org/2000/svg" p-id="13778" xmlns:xlink="http://www.w3.org/1999/xlink" width="24" height="24"><path d="M466.773333 966.4a122.922667 122.922667 0 0 1-59.306666-15.36 115.2 115.2 0 0 1-60.16-101.546667v-226.133333a133.290667 133.290667 0 0 0-27.306667-69.546667L160.426667 384.853333A171.477333 171.477333 0 0 1 113.066667 277.333333V179.2A118.272 118.272 0 0 1 230.4 57.6h563.2a117.504 117.504 0 0 1 117.333333 117.333333v93.866667a192 192 0 0 1-52.053333 120.746667l-184.746667 163.413333a106.965333 106.965333 0 0 0-32 74.24V810.666667a125.994667 125.994667 0 0 1-53.76 99.84l-58.922666 37.973333a118.613333 118.613333 0 0 1-62.677334 17.92zM230.4 121.6A54.997333 54.997333 0 0 0 177.066667 179.2v98.133333a111.914667 111.914667 0 0 0 29.013333 62.72l162.56 171.093334a195.797333 195.797333 0 0 1 43.093333 111.786666v226.133334a51.2 51.2 0 0 0 27.306667 45.653333 59.136 59.136 0 0 0 28.330667 7.338667 53.333333 53.333333 0 0 0 27.989333-7.722667l59.306667-37.973333a64.512 64.512 0 0 0 23.893333-45.653334v-183.466666a170.410667 170.410667 0 0 1 54.186667-122.88l182.613333-161.706667a128 128 0 0 0 32-74.24V174.933333a53.418667 53.418667 0 0 0-53.333333-53.333333z" p-id="13779"></path><path d="M238.933333 453.973333a32.384 32.384 0 0 1-10.24-44.373333l210.346667-337.066667a31.914667 31.914667 0 0 1 54.186667 33.706667l-210.346667 337.066667a31.488 31.488 0 0 1-26.88 15.36 35.456 35.456 0 0 1-17.066667-4.693334z" p-id="13780"></path></svg>