<svg fill="currentColor" class="icon" viewBox="0 0 1024 1024" xmlns="http://www.w3.org/2000/svg" width="24" height="24"><path d="M512 672a315.14 315.14 0 0 1-320-309.33A315.18 315.18 0 0 1 512 53.33a315.18 315.18 0 0 1 320 309.34A315.18 315.18 0 0 1 512 672zm0-554.67a251.1 251.1 0 0 0-256 245.34A251.1 251.1 0 0 0 512 608a251.1 251.1 0 0 0 256-245.3 251.14 251.14 0 0 0-256-245.37z"/><path d="M630.19 962.13 515.4 907.95a23.17 23.17 0 0 0-7.68 0L393.81 961.7a73.22 73.22 0 0 1-72.1-1.71 77.7 77.7 0 0 1-33.28-68.7l.42-314.87a31.19 31.19 0 0 1 32-32 32.21 32.21 0 0 1 32 32l-.42 314.88c0 9.38 2.56 14.08 3.84 14.5a14.85 14.85 0 0 0 10.66-2.13l114.35-54.19a77.95 77.95 0 0 1 61.87 0l114.77 54.19a14.85 14.85 0 0 0 10.67 2.13 20.3 20.3 0 0 0 3.84-14.5V568.75a32 32 0 1 1 64 0V891.3A78.46 78.46 0 0 1 702.72 960a65.4 65.4 0 0 1-36.27 10.67 88.2 88.2 0 0 1-36.26-8.54z"/></svg>