<svg fill="currentColor" class="icon" viewBox="0 0 1024 1024" xmlns="http://www.w3.org/2000/svg" width="24" height="24"><path d="M512 965.55a160.81 160.81 0 0 1-80.17-19.67L197.16 810.62c-95.91-64.64-101.59-74.45-101.59-175.31V388.65c0-101.2 5.6-110.93 99.42-174.5L431.36 77.6a161.88 161.88 0 0 1 80-19.5 161.88 161.88 0 0 1 80 19.5l235.52 135.72c95.87 64.6 101.55 74.41 101.55 175.32v246.19c0 101.16-5.6 110.93-99.42 174.5L592.64 945.88A164.22 164.22 0 0 1 512 965.55zm0-843.1a96.85 96.85 0 0 0-47.79 10.67L229.55 268.8C160 315.73 160 315.73 160 388.7v246.18c0 72.96 0 72.96 71.25 121.17l232.96 134.4a99.71 99.71 0 0 0 48 10.88 99.71 99.71 0 0 0 48-10.88l234.67-135.68C864 707.84 864 707.84 864 634.84V388.65c0-72.96 0-72.96-71.21-121.13l-232.96-134.4a96.94 96.94 0 0 0-47.83-10.7z"/><path d="M512 672a160 160 0 1 1 160-160 160.17 160.17 0 0 1-160 160zm0-256a96 96 0 1 0 96 96 96.13 96.13 0 0 0-96-96z"/></svg>