<svg fill="currentColor" class="icon" viewBox="0 0 1024 1024" xmlns="http://www.w3.org/2000/svg" width="24" height="24"><path d="M759.04 970.67H264.96A212.05 212.05 0 0 1 53.33 758.6V442.58a235.4 235.4 0 0 1 81.92-166.83L365.23 96.38a212.35 212.35 0 0 1 130.26-42.07 211.8 211.8 0 0 1 121.04 36.14L880.17 275.2a233.26 233.26 0 0 1 90.45 173.23v310.61a211.88 211.88 0 0 1-211.58 211.63zM495.14 118.3a149.76 149.76 0 0 0-90.66 28.38L174.51 325.97a173.7 173.7 0 0 0-57.18 116.61v316.2A147.97 147.97 0 0 0 264.96 906.8h494.08a147.8 147.8 0 0 0 147.63-147.75V448.43a168.75 168.75 0 0 0-63.15-120.75L579.84 142.93a148.35 148.35 0 0 0-84.7-24.62z"/><path d="M480 768V640a32.21 32.21 0 0 1 32-32 32.21 32.21 0 0 1 32 32v128a32.21 32.21 0 0 1-32 32 32.21 32.21 0 0 1-32-32z"/></svg>