<svg fill="currentColor" class="icon" viewBox="0 0 1024 1024" xmlns="http://www.w3.org/2000/svg" width="24" height="24"><path d="M532.05 491.9a32.17 32.17 0 0 1 0-45.22L881.92 96.8a32 32 0 0 1 45.23 45.23L577.28 491.9a31.91 31.91 0 0 1-45.23 0z"/><path d="M906.62 290.13v-172.8h-172.8a32.21 32.21 0 0 1-32-32 32.21 32.21 0 0 1 32-32h204.8a32.21 32.21 0 0 1 32 32v204.8a32 32 0 0 1-64 0zM384 970.67c-231.68 0-330.67-98.99-330.67-330.67V384c0-231.68 98.99-330.67 330.67-330.67h85.33a32.21 32.21 0 0 1 32 32 32.21 32.21 0 0 1-32 32H384c-196.7 0-266.67 69.98-266.67 266.67v256c0 196.7 69.98 266.67 266.67 266.67h256c196.7 0 266.67-69.98 266.67-266.67v-85.33a32 32 0 0 1 64 0V640c0 231.68-98.99 330.67-330.67 330.67z"/></svg>