<?xml version="1.0" standalone="no"?><!DOCTYPE svg PUBLIC "-//W3C//DTD SVG 1.1//EN" "http://www.w3.org/Graphics/SVG/1.1/DTD/svg11.dtd"><svg fill="currentColor" t="1729764883670" class="icon" viewBox="0 0 1024 1024" version="1.1" xmlns="http://www.w3.org/2000/svg" p-id="14899" xmlns:xlink="http://www.w3.org/1999/xlink" width="24" height="24"><path d="M379.776 495.786667a224.768 224.768 0 0 1-155.008-66.986667 219.050667 219.050667 0 0 1-62.165333-154.026667 221.44 221.44 0 1 1 229.546666 221.013334h-4.693333a19.669333 19.669333 0 0 0-3.712-0.298667 24.661333 24.661333 0 0 0-3.968 0.298667z m3.968-64.341334c2.474667 0 5.248 0 7.978667 0.341334a158.293333 158.293333 0 1 0-13.653334 0 35.754667 35.754667 0 0 1 5.717334-0.341334z" p-id="14900"></path><path d="M701.866667 500.906667a33.792 33.792 0 0 1-37.290667-28.16 31.104 31.104 0 0 1 26.624-35.413334c5.12-0.426667 10.666667-0.426667 15.36-0.426666a117.418667 117.418667 0 0 0-6.4-234.666667 31.616 31.616 0 0 1-32-31.573333 32.213333 32.213333 0 0 1 32-32 181.717333 181.717333 0 0 1 181.333333 181.333333 180.949333 180.949333 0 0 1-174.506666 181.333333h-1.28a11.818667 11.818667 0 0 1-3.84-0.426666zM391.253333 962.133333a418.133333 418.133333 0 0 1-231.253333-64 183.168 183.168 0 0 1-91.733333-151.424 185.002667 185.002667 0 0 1 91.733333-152.32 422.656 422.656 0 0 1 231.552-63.701333 419.498667 419.498667 0 0 1 230.954667 63.658667 184.021333 184.021333 0 0 1 91.733333 151.466666 184.874667 184.874667 0 0 1-91.733333 152.277334 420.138667 420.138667 0 0 1-231.253334 64.042666z m0-366.933333a356.522667 356.522667 0 0 0-195.84 52.906667 123.008 123.008 0 0 0-63.146666 98.986666 122.154667 122.154667 0 0 0 63.146666 98.133334 354.944 354.944 0 0 0 195.84 53.461333 354.944 354.944 0 0 0 195.84-53.418667 123.050667 123.050667 0 0 0 63.189334-98.986666 122.112 122.112 0 0 0-63.189334-98.133334 356.522667 356.522667 0 0 0-195.84-53.12zM751.36 859.733333a32.426667 32.426667 0 0 1 24.746667-37.973333 172.8 172.8 0 0 0 70.826666-31.146667 83.456 83.456 0 0 0 37.546667-65.706666 82.773333 82.773333 0 0 0-37.12-65.28 178.645333 178.645333 0 0 0-69.973333-31.146667 32.128 32.128 0 1 1 14.08-62.72 238.122667 238.122667 0 0 1 94.72 42.666667 146.730667 146.730667 0 0 1 62.293333 116.48 148.608 148.608 0 0 1-62.72 116.906666 231.082667 231.082667 0 0 1-96.426667 42.666667 19.968 19.968 0 0 1-6.826666 0.853333 31.488 31.488 0 0 1-31.146667-25.6z" p-id="14901"></path></svg>