<svg fill="currentColor" class="icon" viewBox="0 0 1024 1024" xmlns="http://www.w3.org/2000/svg" width="24" height="24"><path d="M748.37 386.56A136.96 136.96 0 1 1 885.33 249.6a137.09 137.09 0 0 1-136.96 136.96zm0-210.3a72.96 72.96 0 1 0 72.96 72.91 73.05 73.05 0 0 0-72.96-72.96zM275.63 386.56A136.96 136.96 0 1 1 412.59 249.6a137.09 137.09 0 0 1-136.96 136.96zm0-210.3a72.96 72.96 0 1 0 72.96 72.91 73.05 73.05 0 0 0-72.96-72.96zm472.74 735.53a136.96 136.96 0 1 1 136.96-136.96 137.09 137.09 0 0 1-136.96 136.96zm0-210.3a72.96 72.96 0 1 0 72.96 72.91 73.05 73.05 0 0 0-72.96-72.96zm-472.74 210.3a136.96 136.96 0 1 1 136.96-136.96 137.09 137.09 0 0 1-136.96 136.96zm0-210.3a72.96 72.96 0 1 0 72.96 72.91 73.05 73.05 0 0 0-72.96-72.96z"/></svg>