<svg fill="currentColor" class="icon" viewBox="0 0 1024 1024" xmlns="http://www.w3.org/2000/svg" width="24" height="24"><path d="M512 970.67A458.67 458.67 0 1 1 970.67 512 459.18 459.18 0 0 1 512 970.67zm0-853.34A394.67 394.67 0 1 0 906.67 512 395.1 395.1 0 0 0 512 117.33z"/><path d="m654.08 674.99-132.27-78.94a125.82 125.82 0 0 1-57.17-100.69V320.43a32.21 32.21 0 0 1 32-32 32.21 32.21 0 0 1 32 32v174.93a63.06 63.06 0 0 0 26.03 45.65l132.26 78.94a31.96 31.96 0 0 1 11.1 43.94 32.85 32.85 0 0 1-27.74 15.79 28.59 28.59 0 0 1-16.21-4.7z"/></svg>