<svg fill="currentColor" class="icon" viewBox="0 0 1024 1024" xmlns="http://www.w3.org/2000/svg" width="24" height="24"><path d="M369.92 970.67H85.33a32.43 32.43 0 0 1-32-32v-256a117.5 117.5 0 0 1 117.34-117.34h199.25a32.43 32.43 0 0 1 32 32v341.34a32.04 32.04 0 0 1-32 32zM170.67 629.33a53.42 53.42 0 0 0-53.34 53.34v224h220.59V629.33z"/><path d="M654.08 970.67H369.49a32.43 32.43 0 0 1-32-32V512a117.5 117.5 0 0 1 117.34-117.33h113.92A117.5 117.5 0 0 1 686.08 512v426.67a32.04 32.04 0 0 1-32 32zm-198.83-512A53.42 53.42 0 0 0 401.92 512v394.67h220.59V512a53.42 53.42 0 0 0-53.34-53.33z"/><path d="M938.67 970.67H654.08a32.43 32.43 0 0 1-32-32V725.33a32.43 32.43 0 0 1 32-32h199.25a117.5 117.5 0 0 1 117.34 117.34v128a32.43 32.43 0 0 1-32 32zM686.08 757.33v149.34h220.59v-96a53.42 53.42 0 0 0-53.34-53.34zm-101.59-401.1a75.73 75.73 0 0 1-37.55-11.53l-34.98-20.9-34.56 20.48a73.47 73.47 0 0 1-37.46 11.69 50.56 50.56 0 0 1-29.1-9.22 57.26 57.26 0 0 1-17.92-64l8.1-35.41-29-29.01a57.47 57.47 0 0 1-17.93-58.88 58.33 58.33 0 0 1 48.64-37.55l37.08-6.36 20.95-41.85a57.73 57.73 0 0 1 50.9-34.14A57.05 57.05 0 0 1 562.3 73.7l20.95 41.8 37.08 6.37a57.39 57.39 0 0 1 48.64 37.54 58.24 58.24 0 0 1-17.92 58.88l-29.01 29.02 8.1 35.4a58.24 58.24 0 0 1-17.92 64.44 43.43 43.43 0 0 1-27.73 9.08zm-72.53-96.86a56.58 56.58 0 0 1 29.01 7.68l23.9 14.08-5.13-23.04a59.05 59.05 0 0 1 15.36-52.9l21.72-21.77-26.88-4.69a59.73 59.73 0 0 1-41.39-30.72l-16.64-32-16.2 32a59.73 59.73 0 0 1-41.4 30.72L427.43 183l21.76 21.76a60.67 60.67 0 0 1 15.36 52.9l-5.16 23.04 23.94-14.08a53.55 53.55 0 0 1 28.63-7.2z"/></svg>