<svg fill="currentColor" class="icon" viewBox="0 0 1024 1024" xmlns="http://www.w3.org/2000/svg" width="24" height="24"><path d="M512 970.67a405.33 405.33 0 1 1 405.33-405.34A405.8 405.8 0 0 1 512 970.67zM512 224a341.33 341.33 0 1 0 341.33 341.33A341.72 341.72 0 0 0 512 224z"/><path d="M480 554.67V341.33a32.21 32.21 0 0 1 32-32 32.21 32.21 0 0 1 32 32v213.34a32.21 32.21 0 0 1-32 32 32.21 32.21 0 0 1-32-32zm-96-437.34a32.21 32.21 0 0 1-32-32 32.21 32.21 0 0 1 32-32h256a32.21 32.21 0 0 1 32 32 32.21 32.21 0 0 1-32 32z"/></svg>