<svg fill="currentColor" class="icon" viewBox="0 0 1024 1024" xmlns="http://www.w3.org/2000/svg" width="24" height="24"><path d="M733.87 970.67A236.8 236.8 0 1 1 906.24 571.3a32 32 0 0 1 3.37 4.26 236.54 236.54 0 0 1-175.74 395.1zm0-409.6a172.8 172.8 0 1 0 172.8 172.8 171.26 171.26 0 0 0-47.36-118.19 17.07 17.07 0 0 1-1.28-1.5 17.07 17.07 0 0 0-1.28-1.49 171.56 171.56 0 0 0-122.88-51.62z"/><path d="M765.82 813.65 657.45 705.28a32 32 0 0 1 45.18-45.23l108.38 108.38a32.17 32.17 0 0 1 0 45.22 32.73 32.73 0 0 1-22.62 9.39 31.66 31.66 0 0 1-22.57-9.39z"/><path d="M656.64 814.9a32.17 32.17 0 0 1 0-45.24l108.33-108.33a32 32 0 0 1 45.23 45.23L701.82 814.93a33.54 33.54 0 0 1-22.6 9.39 31.66 31.66 0 0 1-22.58-9.43z"/><path d="M512 923.73a112.09 112.09 0 0 1-37.08-5.54C365.52 881.07 53.33 700.67 53.33 370.77a268.8 268.8 0 0 1 458.67-192 268.8 268.8 0 0 1 458.67 192 501.2 501.2 0 0 1-59.74 237.66 31.45 31.45 0 0 1-23.89 16.68 34.13 34.13 0 0 1-4.27.26 32.09 32.09 0 0 1-23.55-10.07 172.59 172.59 0 0 0-254.3 233.38 31.45 31.45 0 0 1 7.26 27.74 33.5 33.5 0 0 1-17.92 22.6 500.3 500.3 0 0 1-46.5 18.78 92.93 92.93 0 0 1-35.76 5.93zM322.56 164.27a206.08 206.08 0 0 0-205.23 206.5c0 291.25 280.24 453.08 378.46 486.83a46.08 46.08 0 0 0 15.31 2.1 58.54 58.54 0 0 0 16.69-2.1l3.84-1.28a236.67 236.67 0 0 1 340.43-314.88 436.82 436.82 0 0 0 34.56-170.67 204.8 204.8 0 0 0-369.06-124.16 33.02 33.02 0 0 1-51.2 0 205.14 205.14 0 0 0-163.8-82.34z"/></svg>