<?xml version="1.0" standalone="no"?><!DOCTYPE svg PUBLIC "-//W3C//DTD SVG 1.1//EN" "http://www.w3.org/Graphics/SVG/1.1/DTD/svg11.dtd"><svg fill="currentColor" t="1729885476422" class="icon" viewBox="0 0 1024 1024" version="1.1" xmlns="http://www.w3.org/2000/svg" p-id="30102" xmlns:xlink="http://www.w3.org/1999/xlink" width="24" height="24"><path d="M681.429333 970.666667h-341.333333c-145.834667 0-202.666667-56.832-202.666667-202.666667v-341.333333a32.426667 32.426667 0 0 1 32-32h682.666667a32.042667 32.042667 0 0 1 32 32v341.333333c0 145.834667-56.832 202.666667-202.666667 202.666667z m-480-512V768c0 110.165333 28.501333 138.666667 138.666667 138.666667h341.333333c110.165333 0 138.666667-28.501333 138.666667-138.666667v-309.333333z" p-id="30103"></path><path d="M832 458.666667h-640A106.666667 106.666667 0 0 1 74.666667 341.333333V298.666667A106.666667 106.666667 0 0 1 192 181.333333h640A108.885333 108.885333 0 0 1 949.333333 298.666667v42.666666a108.842667 108.842667 0 0 1-117.333333 117.333334z m-640-213.333334c-38.869333 0-53.333333 14.464-53.333333 53.333334v42.666666c0 38.912 14.464 53.333333 53.333333 53.333334h640c37.376 0 53.333333-15.914667 53.333333-53.333334V298.666667c0-37.376-15.957333-53.333333-53.333333-53.333334z" p-id="30104"></path><path d="M496.597333 245.333333H261.12a32.384 32.384 0 0 1-23.509333-10.197333 72.277333 72.277333 0 0 1 2.133333-99.84l60.586667-60.629333a73.173333 73.173333 0 0 1 102.826666 0l116.053334 116.053333a32.128 32.128 0 0 1 6.826666 34.986667 31.317333 31.317333 0 0 1-29.44 19.626666z m-145.066666-128a8.533333 8.533333 0 0 0-6.186667 2.56l-60.586667 60.586667a0.554667 0.554667 0 0 1 0 0.426667 0.554667 0.554667 0 0 0 0 0.426666h135.253334l-61.866667-61.44a8.533333 8.533333 0 0 0-6.4-2.346666z"  p-id="30105"></path><path d="M762.496 245.333333h-235.52a31.616 31.616 0 0 1-29.44-19.626666 32.341333 32.341333 0 0 1 6.826667-34.986667l116.053333-116.053333a73.173333 73.173333 0 0 1 102.826667 0l60.586666 60.586666a71.808 71.808 0 0 1 2.133334 99.84 32.213333 32.213333 0 0 1-23.466667 10.24z m-90.24-128a8.533333 8.533333 0 0 0-6.186667 2.56l-61.44 61.653334h135.253334l-0.853334-0.853334-60.544-60.8a8.533333 8.533333 0 0 0-6.272-2.346666zM424.064 721.066667a74.709333 74.709333 0 0 1-74.666667-74.666667V426.666667a32.426667 32.426667 0 0 1 32-32h257.706667a32.426667 32.426667 0 0 1 32 32v218.88a74.581333 74.581333 0 0 1-74.24 74.581333 75.136 75.136 0 0 1-41.770667-12.8l-37.973333-25.6a9.6 9.6 0 0 0-5.802667-1.92 11.008 11.008 0 0 0-6.144 1.92l-40.149333 26.453333a72.874667 72.874667 0 0 1-40.96 12.885334z m-10.666667-262.826667v187.733333a10.88 10.88 0 0 0 10.709334 10.794667 10.88 10.88 0 0 0 5.930666-1.834667l40.106667-26.453333a74.88 74.88 0 0 1 41.386667-12.458667 73.344 73.344 0 0 1 41.045333 12.458667l37.973333 25.6a11.050667 11.050667 0 0 0 5.930667 1.792 10.282667 10.282667 0 0 0 5.077333-1.365333 10.453333 10.453333 0 0 0 5.546667-9.386667v-186.88z"  p-id="30106"></path></svg>