<svg fill="currentColor" width="24" height="24" viewBox="0 0 24 24" xmlns="http://www.w3.org/2000/svg">
<path d="M21.0001 2.19995C20.3001 1.69995 19.5001 1.69995 18.8001 2.09995L2.50007 10.7999C1.80007 11.1999 1.40007 11.8999 1.50007 12.5999C1.60007 13.3999 2.00007 13.9999 2.80007 14.1999L8.00007 16.0999V20.7999C8.00007 21.2999 8.30007 21.7999 8.90007 21.9999H9.20007C9.60007 21.9999 10.0001 21.7999 10.2001 21.4999L12.9001 17.7999L17.2001 19.2999C17.4001 19.3999 17.6001 19.3999 17.9001 19.3999C18.2001 19.3999 18.6001 19.2999 18.9001 19.0999C19.4001 18.7999 19.7001 18.2999 19.8001 17.6999L21.9001 4.09995C21.9001 3.39995 21.6001 2.69995 21.0001 2.19995ZM3.30007 12.3999L17.3001 4.79995L8.50007 14.2999L3.30007 12.3999C3.40007 12.4999 3.30007 12.4999 3.30007 12.3999ZM9.80007 18.9999V16.6999L11.1001 17.1999L9.80007 18.9999ZM17.9001 17.4999C17.9001 17.5999 17.9001 17.5999 17.8001 17.5999H17.7001L10.4001 14.9999L20.0001 4.69995L17.9001 17.4999Z" />
</svg>
