<svg fill="currentColor" xmlns="http://www.w3.org/2000/svg" width="24" height="24" class="icon" viewBox="0 0 1024 1024"><path d="M512 96a416 416 0 1 0 416 416A416.47 416.47 0 0 0 512 96zm0 768a352 352 0 1 1 352-352 352.384 352.384 0 0 1-352 352zm157.483-466.09a155.605 155.605 0 0 1-76.416 161.322c-40.15 26.667-48.896 42.667-50.816 48.341a32.043 32.043 0 0 1-30.336 21.76 32.683 32.683 0 0 1-10.198-1.664 32.043 32.043 0 0 1-20.096-40.576 174.677 174.677 0 0 1 76.032-81.066 91.861 91.861 0 0 0 48.726-96.982A96.043 96.043 0 0 0 416 426.667a32 32 0 0 1-64 0 160.043 160.043 0 0 1 317.483-28.758zM554.667 725.332A42.667 42.667 0 1 1 512 682.667a42.667 42.667 0 0 1 42.667 42.666z"/></svg>