<svg fill="currentColor" class="icon" viewBox="0 0 1024 1024" xmlns="http://www.w3.org/2000/svg" width="24" height="24"><path d="M512 292.57c175.06 0 316.95 141.9 316.95 316.95S687.05 926.48 512 926.48s-316.95-141.9-316.95-316.96S336.95 292.57 512 292.57zm0 73.14c-134.66 0-243.81 109.16-243.81 243.81S377.34 853.33 512 853.33s243.81-109.15 243.81-243.8S646.66 365.7 512 365.7zm0 73.15a170.67 170.67 0 1 1 0 341.33 170.67 170.67 0 0 1 0-341.33zm0 73.14a97.52 97.52 0 1 0 0 195.05A97.52 97.52 0 0 0 512 512zm256-402.29a73.14 73.14 0 0 1 73.14 73.15V307.7l-59.49 59.5-51.68-51.74L768 277.43v-94.57h-97.52v60.95h-73.15v-60.95H426.67v60.95h-73.15v-60.95H256v94.57l38.03 38.04-51.68 51.73-59.5-59.49V182.86A73.14 73.14 0 0 1 256 109.7h512z"/></svg>