<svg fill="currentColor" class="icon" viewBox="0 0 1024 1024" xmlns="http://www.w3.org/2000/svg" width="24" height="24"><path d="M609.21 955.8 268.25 614.88l-.68-2.02-3.82-1.94L79.97 426.6a26.73 26.73 0 0 1 0-37.72l91.41-91.44a26.7 26.7 0 0 1 18.88-7.34 26.97 26.97 0 0 1 18.9 7.34 69.9 69.9 0 0 0 50.01 20.79 70.25 70.25 0 0 0 50.04-20.72 70.93 70.93 0 0 0 0-100.15 26.7 26.7 0 0 1 0-37.72l91.45-91.37a26.45 26.45 0 0 1 18.84-7.82 26.62 26.62 0 0 1 18.9 7.82l529.08 529.06a26.62 26.62 0 0 1 0 37.55l-91.35 91.37a26.86 26.86 0 0 1-18.87 7.38 26.66 26.66 0 0 1-18.84-7.38 70.59 70.59 0 0 0-50.11-20.71 70.45 70.45 0 0 0-50.07 20.68 70.42 70.42 0 0 0-20.72 50.1 70.11 70.11 0 0 0 20.72 50.05 27 27 0 0 1 7.81 18.87 26.39 26.39 0 0 1-7.81 18.88l-91.45 91.4a26.56 26.56 0 0 1-18.84 7.8 26.28 26.28 0 0 1-18.74-7.52zM357.92 520.98a26.7 26.7 0 0 1 0 37.71l-35.19 35.23 305.22 305.22 55.5-55.47-4.26-7.85a125 125 0 0 1 21.3-147.08 123.46 123.46 0 0 1 87.82-36.28 124.72 124.72 0 0 1 59.29 14.98l7.85 4.27 55.47-55.47L605.62 311l-35.15 35.22a26.56 26.56 0 0 1-18.88 7.82 26.73 26.73 0 0 1-18.9-7.82 26.76 26.76 0 0 1 0-37.75l35.19-35.19L419.43 124.8l-55.47 55.47 4.24 7.85a125 125 0 0 1-21.27 147.05 123.32 123.32 0 0 1-87.79 36.38 124.55 124.55 0 0 1-59.36-15.05l-7.81-4.27-55.47 55.47 148.45 148.44 35.19-35.19a26.56 26.56 0 0 1 18.87-7.81 26.45 26.45 0 0 1 19.08 7.85zm41.54-41.47a26.7 26.7 0 0 1 0-37.72l54.07-54.1a26.59 26.59 0 0 1 18.84-7.82 26.59 26.59 0 0 1 18.91 7.82 26.73 26.73 0 0 1 0 37.75l-54.07 54.1a26.32 26.32 0 0 1-18.87 7.82 26.73 26.73 0 0 1-18.74-7.85z"/></svg>