<?xml version="1.0" standalone="no"?><!DOCTYPE svg PUBLIC "-//W3C//DTD SVG 1.1//EN" "http://www.w3.org/Graphics/SVG/1.1/DTD/svg11.dtd"><svg fill="currentColor" t="1721718062705" class="icon" viewBox="0 0 1024 1024" version="1.1" xmlns="http://www.w3.org/2000/svg" p-id="13617" xmlns:xlink="http://www.w3.org/1999/xlink" width="24" height="24"><path d="M110.08 568.746667A402.688 402.688 0 0 1 512 166.4a446.08 446.08 0 0 1 132.693333 19.626667 32.128 32.128 0 0 1-18.773333 61.44A389.632 389.632 0 0 0 512 230.4a337.493333 337.493333 0 1 0 281.173333 150.186667 32 32 0 1 1 53.333334-35.413334 402.090667 402.090667 0 1 1-736.426667 223.573334z" p-id="13618"></path><path d="M663.893333 247.893333l-123.306666-141.653333a32.042667 32.042667 0 1 1 48.213333-42.24l123.136 141.653333a32.256 32.256 0 0 1-2.986667 45.226667 29.312 29.312 0 0 1-20.906666 8.106667 32.512 32.512 0 0 1-24.149334-11.093334z" p-id="13619"></path><path d="M518.4 350.72a32.469333 32.469333 0 0 1 6.741333-44.8l143.872-104.96a32.042667 32.042667 0 0 1 37.973334 51.626667L563.2 357.973333a29.866667 29.866667 0 0 1-18.773333 5.973334 32.725333 32.725333 0 0 1-26.026667-13.226667z" p-id="13620"></path></svg>