<svg fill="currentColor" width="24" height="24" viewBox="0 0 24 24" xmlns="http://www.w3.org/2000/svg">
<path d="M19 21C17.897 21 17 20.103 17 19C17 17.897 17.897 17 19 17C20.103 17 21 17.897 21 19C21 20.103 20.103 21 19 21ZM5 14C3.897 14 3 13.103 3 12C3 10.897 3.897 10 5 10C6.103 10 7 10.897 7 12C7 13.103 6.103 14 5 14ZM19 3C20.103 3 21 3.897 21 5C21 6.103 20.103 7 19 7C17.897 7 17 6.103 17 5C17 3.897 17.897 3 19 3ZM19 15C18.2446 15.002 17.5053 15.2182 16.8679 15.6236C16.2305 16.0289 15.7212 16.6068 15.399 17.29L8.996 13.632C8.90126 13.5821 8.79885 13.5483 8.693 13.532C8.8953 13.0466 8.99963 12.5259 9 12C9 11.792 8.969 11.591 8.938 11.392C8.957 11.382 8.978 11.379 8.996 11.368L15.859 7.447C16.2293 7.92841 16.7049 8.31867 17.2493 8.58786C17.7938 8.85705 18.3926 8.99803 19 9C21.206 9 23 7.206 23 5C23 2.794 21.206 1 19 1C16.794 1 15 2.794 15 5C15 5.21 15.031 5.411 15.062 5.613C15.043 5.622 15.022 5.621 15.004 5.632L8.141 9.553C7.7707 9.07159 7.2951 8.68133 6.75065 8.41214C6.2062 8.14295 5.60736 8.00197 5 8C2.794 8 1 9.794 1 12C1 14.206 2.794 16 5 16C5.97619 15.9967 6.91688 15.6336 7.642 14.98C7.72452 15.1403 7.84981 15.2746 8.004 15.368L15.004 19.368C15.015 19.375 15.027 19.376 15.039 19.382C15.234 21.406 16.925 23 19 23C21.206 23 23 21.206 23 19C23 16.794 21.206 15 19 15Z" />
</svg>
