<?xml version="1.0" standalone="no"?><!DOCTYPE svg PUBLIC "-//W3C//DTD SVG 1.1//EN" "http://www.w3.org/Graphics/SVG/1.1/DTD/svg11.dtd"><svg fill="currentColor" t="1749224236881" class="icon" viewBox="0 0 1024 1024" version="1.1" xmlns="http://www.w3.org/2000/svg" p-id="4500" xmlns:xlink="http://www.w3.org/1999/xlink" width="24" height="24"><path d="M972.92032 449.536a51.2 51.2 0 0 0-51.2 51.2v132.608l-301.056-301.056a51.2 51.2 0 0 0-72.192 0L368.76032 512 87.67232 230.912A51.2 51.2 0 0 0 14.96832 303.616l317.44 317.44a51.2 51.2 0 0 0 72.192 0l179.712-179.712 264.704 264.704H716.92032a51.2 51.2 0 0 0 0 102.4h256a51.2 51.2 0 0 0 51.2-51.2v-256a51.2 51.2 0 0 0-51.2-51.712z" p-id="4501"></path></svg>