<svg width="33" height="32" viewBox="0 0 33 32" fill="none" xmlns="http://www.w3.org/2000/svg">
<circle opacity="0.6" cx="4.53901" cy="4.53901" r="4.53901" transform="matrix(-1 0 0 1 21.4897 6.66656)" stroke="#FAFAFA" stroke-width="2"/>
<path d="M9.00732 22.4792C9.00732 21.5029 9.62106 20.632 10.5405 20.3036V20.3036C14.6857 18.8232 19.2155 18.8232 23.3607 20.3036V20.3036C24.2801 20.632 24.8938 21.5029 24.8938 22.4792V24.2189C24.8938 25.436 23.8159 26.3709 22.611 26.1988L20.769 25.9357C18.2362 25.5738 15.6649 25.5738 13.1322 25.9357L11.2902 26.1988C10.0853 26.3709 9.00732 25.436 9.00732 24.2189V22.4792Z" stroke="#FAFAFA" stroke-width="2"/>
<path opacity="0.6" d="M23.7588 15.8702C25.7285 15.8702 27.3252 14.2735 27.3252 12.3039C27.3252 10.3342 25.7285 8.73749 23.7588 8.73749" stroke="#FAFAFA" stroke-width="2" stroke-linecap="round"/>
<path d="M27.6648 24.0066L28.0142 24.0565C29.0623 24.2062 30 23.393 30 22.3343V21.1614C30 20.3943 29.5177 19.71 28.7953 19.452C28.0747 19.1947 27.3393 18.9942 26.5957 18.8508" stroke="#FAFAFA" stroke-width="2" stroke-linecap="round"/>
<path opacity="0.6" d="M9.57466 15.8702C7.60502 15.8702 6.0083 14.2735 6.0083 12.3039C6.0083 10.3342 7.60502 8.73749 9.57466 8.73749" stroke="#FAFAFA" stroke-width="2" stroke-linecap="round"/>
<path d="M5.66873 24.0066L5.3193 24.0565C4.27123 24.2062 3.33354 23.393 3.33354 22.3343V21.1614C3.33354 20.3943 3.81576 19.71 4.53816 19.452C5.25876 19.1947 5.99415 18.9942 6.73779 18.8508" stroke="#FAFAFA" stroke-width="2" stroke-linecap="round"/>
</svg>
