<svg width="33" height="32" viewBox="0 0 33 32" fill="none" xmlns="http://www.w3.org/2000/svg">
<g clip-path="url(#clip0_160_11268)">
<path d="M16.8335 32C25.6701 32 32.8335 24.8366 32.8335 16C32.8335 7.16344 25.6701 0 16.8335 0C7.99694 0 0.833496 7.16344 0.833496 16C0.833496 24.8366 7.99694 32 16.8335 32Z" fill="#1D94FF"/>
<mask id="mask0_160_11268" style="mask-type:luminance" maskUnits="userSpaceOnUse" x="8" y="8" width="18" height="18">
<path d="M22.5651 8.11434H11.0737C10.5891 8.11876 10.1141 8.24932 9.69537 8.49324C9.27668 8.73716 8.92878 9.08598 8.68596 9.50531C8.44313 9.92464 8.31377 10.4 8.31061 10.8846C8.30744 11.3691 8.43059 11.8461 8.66792 12.2686L15.7651 24.6058C15.8762 24.7853 16.0314 24.9335 16.216 25.0363C16.4005 25.1391 16.6082 25.193 16.8194 25.193C17.0306 25.193 17.2383 25.1391 17.4228 25.0363C17.6073 24.9335 17.7625 24.7853 17.8736 24.6058L24.9765 12.2686C25.2195 11.8465 25.347 11.3679 25.3461 10.8809C25.3453 10.3938 25.2161 9.91564 24.9716 9.49443C24.7271 9.07322 24.3759 8.72388 23.9535 8.48159C23.531 8.23931 23.0521 8.11264 22.5651 8.11434Z" fill="white"/>
</mask>
<g mask="url(#mask0_160_11268)">
<path d="M13.9594 21.48L11.9651 18.0343L12.8165 16.56L12.828 16.5428L14.7823 13.16L15.6908 11.5771H13.8908L12.9765 13.16L11.0623 16.4685L6.24512 8.11997H10.1365H11.9594H15.868H15.8851V8.11426L17.6908 8.11997H21.6165H21.6737L23.4965 8.11426L27.4223 8.11997L27.388 8.17712L25.428 11.5771H21.5023H19.6737L18.7651 13.16L16.8108 16.5428L16.7994 16.56L15.8965 18.12L13.9594 21.48Z" fill="white"/>
<path d="M16.8335 26.4628L14.8735 23.0628L15.7307 21.5714L15.7593 21.52L17.7192 18.12L18.6278 16.56L18.6335 16.5428L20.5878 13.16H24.5135L22.5592 16.5428L22.5535 16.56L21.6507 18.12H21.645L19.685 21.52L19.6564 21.5714L18.7421 23.1485L16.8335 26.4628Z" fill="white"/>
</g>
</g>
<defs>
<clipPath id="clip0_160_11268">
<rect width="32" height="32" fill="white" transform="translate(0.833496)"/>
</clipPath>
</defs>
</svg>
