<svg width="25" height="24" viewBox="0 0 25 24" fill="none" xmlns="http://www.w3.org/2000/svg">
<path d="M6.6649 5.54515C5.25887 6.9516 4.469 8.85891 4.469 10.8476C4.469 12.8364 5.25887 14.7437 6.6649 16.1501L4.5499 18.2751C3.57484 17.3001 2.80137 16.1425 2.27367 14.8685C1.74597 13.5945 1.47437 12.2291 1.47437 10.8501C1.47437 9.4712 1.74597 8.10575 2.27367 6.83176C2.80137 5.55778 3.57484 4.40021 4.5499 3.42515C5.52497 2.45008 6.68254 1.67662 7.95652 1.14892C9.2305 0.621214 10.596 0.349609 11.9749 0.349609C13.3539 0.349609 14.7193 0.621214 15.9933 1.14892C17.2673 1.67662 18.4248 2.45008 19.3999 3.42515L15.7899 4.39015C14.3571 3.54349 12.6833 3.19747 11.0322 3.40657C9.3811 3.61567 7.84644 4.36802 6.6699 5.54515H6.6649Z" fill="#A6B3BF"/>
<path d="M18.4399 6.9798C19.657 8.84265 20.1409 11.0903 19.7981 13.289C19.4553 15.4876 18.3102 17.4813 16.5837 18.8852C14.8573 20.2891 12.6719 21.0037 10.4496 20.8909C8.22725 20.7782 6.12545 19.8462 4.54993 18.2748L2.42993 20.3948C4.58847 22.554 7.48885 23.8093 10.5404 23.9049C13.592 24.0006 16.5654 22.9295 18.8549 20.9098L20.4599 22.5148C20.7443 22.7798 21.1204 22.924 21.509 22.9172C21.8976 22.9103 22.2683 22.7529 22.5432 22.478C22.818 22.2032 22.9754 21.8325 22.9823 21.4438C22.9891 21.0552 22.8449 20.6792 22.5799 20.3948L20.8399 18.6548C22.4094 16.3452 23.1243 13.5606 22.8614 10.7806C22.5986 8.0006 21.3745 5.39931 19.3999 3.4248L18.4499 6.9798H18.4399Z" fill="#A6B3BF"/>
<path d="M14.3549 9.52509C14.5391 9.35344 14.6869 9.14644 14.7893 8.91644C14.8918 8.68644 14.9469 8.43815 14.9514 8.1864C14.9558 7.93464 14.9095 7.68457 14.8152 7.4511C14.7209 7.21763 14.5805 7.00554 14.4025 6.8275C14.2244 6.64945 14.0124 6.50909 13.7789 6.41478C13.5454 6.32048 13.2953 6.27417 13.0436 6.27861C12.7918 6.28305 12.5435 6.33816 12.3135 6.44064C12.0835 6.54312 11.8765 6.69087 11.7049 6.87509C11.3737 7.23053 11.1934 7.70064 11.202 8.1864C11.2105 8.67215 11.4073 9.13561 11.7508 9.47915C12.0944 9.82268 12.5578 10.0195 13.0436 10.028C13.5293 10.0366 13.9995 9.85629 14.3549 9.52509Z" fill="#A6B3BF"/>
</svg>
