<svg fill="currentColor" width="24" height="24" xmlns="http://www.w3.org/2000/svg"><path d="M16.84 18.74c-.64 0-1.29-.25-1.88-.74-.65-.53-1.06-1.29-1.45-2.01-.7-1.28-1.29-2.37-2.96-2.22-1.1.1-1.68.92-2.3 1.8-.55.77-1.12 1.58-2.07 1.68-.6.07-1.13-.12-1.6-.56-1.24-1.18-1.64-3.93-1.57-5.14.1-2 1.04-3.98 2.9-3.92.96.03 1.64.58 2.29 1.1.71.6 1.39 1.14 2.47 1.16 1.82.03 2.32-.87 2.96-2.01.41-.75.88-1.6 1.8-2.17.7-.45 1.45-.57 2.2-.36a4.4 4.4 0 0 1 2.54 2.36c1.16 2.36 1.1 6.05-.15 8.6-.63 1.26-1.61 2.15-2.64 2.38a2.5 2.5 0 0 1-.54.05Zm-5.99-5.7c1.87 0 2.62 1.38 3.28 2.6.38.7.74 1.36 1.28 1.8.6.5 1.2.68 1.82.55.82-.18 1.62-.93 2.15-2 1.14-2.32 1.2-5.82.15-7.96-.5-1-1.3-1.77-2.1-2a1.95 1.95 0 0 0-1.63.28 4.86 4.86 0 0 0-1.55 1.92c-.67 1.19-1.35 2.42-3.59 2.38-1.33-.02-2.17-.71-2.91-1.32-.61-.5-1.14-.92-1.85-.95-1.59-.05-2.12 2.02-2.18 3.25-.06 1.06.29 3.57 1.35 4.58.31.3.65.41 1.03.37.64-.07 1.07-.68 1.57-1.4.65-.91 1.39-1.96 2.81-2.09l.37-.01Z"/><path d="M7 11.05c0-.25-.2-.45-.45-.45-.24 0-.44.2-.44.45v2.09c0 .25.2.45.44.45.25 0 .45-.2.45-.45v-2.09ZM16.27 12l1.15-1.16a.45.45 0 0 0 0-.64.44.44 0 0 0-.63 0l-1.46 1.48a.45.45 0 0 0 0 .63l1.46 1.48c.18.18.46.18.63 0a.45.45 0 0 0 0-.63L16.27 12Z"/></svg>