<svg width="143" height="40" viewBox="0 0 143 40" fill="none" xmlns="http://www.w3.org/2000/svg">
<g clip-path="url(#clip0_38_163)">
<path d="M64.8447 12.4977H66.6286V17.442C66.6286 17.8329 66.9432 18.1496 67.3317 18.1496H72.9365C73.325 18.1496 73.6396 17.8329 73.6396 17.442V12.4977H75.4235V26.0357H73.6396V20.3944C73.6396 20.0035 73.325 19.6868 72.9365 19.6868H67.3317C66.9432 19.6868 66.6286 20.0035 66.6286 20.3944V26.0357H64.8447V12.4977Z" fill="#DEFAF6" fill-opacity="0.8"/>
<path d="M79.0828 16.1683C80.1496 19.3507 81.0143 22.0325 81.466 23.4459C81.5715 23.7749 82.0337 23.7731 82.1357 23.4441C82.5592 22.0714 83.3695 19.4728 84.4346 16.1701H86.1447L82.619 26.4921C81.6225 29.379 80.8843 30.1114 78.8771 30.1114C78.5696 30.1114 78.2005 30.0919 77.8226 30.0459V28.5635C78.0722 28.5954 78.3551 28.6148 78.6311 28.6148C79.8719 28.6148 80.3447 28.0647 80.923 26.4195L77.2514 16.1718H79.081L79.0828 16.1683Z" fill="#DEFAF6" fill-opacity="0.8"/>
<path d="M89.6386 24.8168V29.915H87.9531V18.5777C87.9531 17.7728 87.9531 16.9378 87.9338 16.1701H89.5789C89.5947 16.3045 89.607 16.4867 89.6176 16.6955C89.6316 16.9997 90.0007 17.1483 90.2134 16.9307C90.7951 16.3381 91.644 15.9348 92.8427 15.9348C95.11 15.9348 96.7568 17.8471 96.7568 20.849C96.7568 24.3728 94.8674 26.2692 92.4929 26.2692C90.9076 26.2692 90.0798 25.6005 89.6386 24.8168ZM95.0133 20.9162C95.0133 18.8235 94.0677 17.3942 92.3928 17.3942C90.361 17.3942 89.5596 18.6873 89.5596 21.0861C89.5596 23.4848 90.2169 24.8328 92.2645 24.8328C94.0554 24.8328 95.0133 23.3486 95.0133 20.918V20.9162Z" fill="#DEFAF6" fill-opacity="0.8"/>
<path d="M100.103 21.4116C100.116 23.4194 101.119 24.8451 102.784 24.8451C104.334 24.8451 104.836 24.042 105.149 23.3185H106.854C106.469 24.5816 105.416 26.2692 102.731 26.2692C99.648 26.2692 98.3913 23.7484 98.3913 21.2081C98.3913 18.2734 99.8607 15.9348 102.84 15.9348C106.002 15.9348 107.039 18.4892 107.039 20.5925C107.039 20.8932 107.039 21.1444 107.012 21.4116H100.103ZM104.541 20.2104C104.989 20.2104 105.323 19.7929 105.228 19.3507C104.972 18.1496 104.181 17.2828 102.813 17.2828C101.446 17.2828 100.643 18.0876 100.316 19.3171C100.196 19.7682 100.532 20.2104 100.996 20.2104H104.539H104.541Z" fill="#DEFAF6" fill-opacity="0.8"/>
<path d="M109.22 18.8483C109.22 17.4685 109.207 16.6919 109.2 16.1683H110.86C110.874 16.3081 110.886 16.5769 110.896 16.9343C110.905 17.2615 111.308 17.3995 111.519 17.1501C112.141 16.416 113.064 15.9719 114.215 15.9366V17.6348C112.204 17.6949 110.912 18.751 110.912 21.247V26.0374H109.22V18.8518V18.8483Z" fill="#DEFAF6" fill-opacity="0.8"/>
<path d="M116.006 11.7494H117.698V16.538C117.698 16.8476 118.064 17.0068 118.287 16.7963C118.818 16.2992 119.619 15.9348 120.825 15.9348C123.284 15.9348 124.836 17.9744 124.836 20.9021C124.836 23.8298 123.342 26.2692 120.567 26.2692C118.997 26.2692 118.18 25.6907 117.682 24.7319C117.682 25.2379 117.649 25.7686 117.616 26.0357H115.983C116.002 24.9336 116.002 23.8244 116.002 22.7224V11.7494H116.006ZM123.094 20.9357C123.094 18.8059 122.127 17.3801 120.428 17.3801C118.347 17.3801 117.612 18.7864 117.612 21.1356C117.612 23.1912 118.264 24.831 120.345 24.831C122.078 24.831 123.092 23.3415 123.092 20.9357H123.094Z" fill="#DEFAF6" fill-opacity="0.8"/>
<path d="M135.587 21.0825C135.587 23.9253 133.968 26.2692 130.971 26.2692C128.163 26.2692 126.463 24.081 126.463 21.1161C126.463 18.1513 128.128 15.9348 131.082 15.9348C133.805 15.9348 135.587 17.9868 135.587 21.0825ZM128.205 21.102C128.205 23.2655 129.279 24.8451 131.04 24.8451C132.801 24.8451 133.842 23.3468 133.842 21.1091C133.842 18.8713 132.84 17.3588 131.001 17.3588C129.163 17.3588 128.205 18.8483 128.205 21.102Z" fill="#DEFAF6" fill-opacity="0.8"/>
<path d="M136.517 16.1683H137.51C137.898 16.1683 138.213 15.8517 138.213 15.4607V13.2566H139.905V15.4607C139.905 15.8517 140.22 16.1683 140.608 16.1683H142.069V17.5587H139.905V23.338C139.905 24.2968 140.137 24.7885 141.025 24.7885C141.26 24.7885 141.612 24.7762 141.879 24.7072V25.9897C141.461 26.1471 140.881 26.1719 140.413 26.1719C138.888 26.1719 138.213 25.3776 138.213 23.7378V17.5587H136.517V16.1683Z" fill="#DEFAF6" fill-opacity="0.8"/>
<path d="M41.9647 39.9982C40.0454 39.9982 38.1384 39.25 36.3703 37.7905C34.4651 36.2179 33.2524 33.9819 32.0801 31.822C30.0361 28.0541 28.2679 24.7992 23.3063 25.2449C20.0478 25.5368 18.3219 27.9816 16.494 30.5696C14.8647 32.8763 13.181 35.2627 10.3513 35.5811C8.59198 35.7792 6.99786 35.2114 5.61466 33.8988C1.94134 30.4104 0.763774 22.2695 0.950076 18.6856C1.25765 12.7612 4.04691 6.86524 9.585 7.04391C12.4077 7.13589 14.4043 8.76512 16.3358 10.3395C18.459 12.0713 20.4626 13.7059 23.6789 13.7625C29.0483 13.8545 30.5387 11.178 32.4281 7.78865C33.6619 5.57565 35.0609 3.06547 37.7641 1.34956C39.8275 0.038747 42.0824 -0.325663 44.2829 0.29348C47.2461 1.13021 50.0635 3.75007 51.8193 7.30041C55.2712 14.2879 55.0814 25.2343 51.3764 32.7631C49.524 36.5275 46.5994 39.1686 43.55 39.8284C43.0227 39.9434 42.4937 40 41.9647 40V39.9982ZM24.2062 23.0797C29.739 23.0797 31.9571 27.1696 33.9291 30.8048C35.0539 32.8799 36.1172 34.8381 37.7061 36.1507C39.4707 37.6083 41.2862 38.1461 43.1036 37.7534C45.529 37.228 47.914 35.0097 49.4835 31.8202C52.8668 24.9442 53.0619 14.5904 49.9282 8.24504C48.4571 5.26785 46.0756 3.00356 43.7117 2.33665C42.0789 1.87495 40.4549 2.14737 38.8872 3.14331C36.6357 4.57264 35.4318 6.73433 34.2665 8.82704C32.2998 12.3544 30.2716 16.0038 23.6403 15.8853C19.698 15.8163 17.2041 13.782 15.0053 11.9882C13.1933 10.5093 11.6291 9.2339 9.5147 9.16491C4.81321 9.00924 3.2437 15.1476 3.05388 18.7952C2.89043 21.9352 3.92564 29.379 7.05938 32.3545C7.98562 33.2337 8.98391 33.5981 10.1158 33.4725C12.0052 33.2602 13.2882 31.4452 14.7733 29.3419C16.7031 26.6088 18.8896 23.5113 23.1165 23.1328C23.4926 23.0992 23.8564 23.0832 24.2044 23.0832L24.2062 23.0797Z" fill="url(#paint0_linear_38_163)"/>
<path d="M12.7838 17.1943C12.7838 16.4616 12.1936 15.8676 11.4656 15.8676C10.7376 15.8676 10.1474 16.4616 10.1474 17.1943V23.3857C10.1474 24.1185 10.7376 24.7125 11.4656 24.7125C12.1936 24.7125 12.7838 24.1185 12.7838 23.3857V17.1943Z" fill="#DEFAF6"/>
<path d="M40.265 19.9981L43.6835 16.5575C44.1985 16.0392 44.1985 15.1989 43.6835 14.6806C43.1685 14.1623 42.3337 14.1623 41.8187 14.6806L37.4688 19.0588C36.9538 19.5771 36.9538 20.4174 37.4688 20.9357L41.8187 25.3139C42.3337 25.8322 43.1685 25.8322 43.6835 25.3139C44.1985 24.7956 44.1985 23.9554 43.6835 23.437L40.265 19.9964V19.9981Z" fill="#DEFAF6"/>
</g>
<defs>
<linearGradient id="paint0_linear_38_163" x1="0.930742" y1="19.9981" x2="54.2852" y2="19.9981" gradientUnits="userSpaceOnUse">
<stop stop-color="#DEFAF6"/>
<stop offset="0.35" stop-color="#FFABFF"/>
<stop offset="1" stop-color="#00B8D9"/>
</linearGradient>
<clipPath id="clip0_38_163">
<rect width="141.137" height="40" fill="white" transform="translate(0.931335)"/>
</clipPath>
</defs>
</svg>
