<svg width="28" height="28" viewBox="0 0 28 28" fill="none" xmlns="http://www.w3.org/2000/svg">
<path fill-rule="evenodd" clip-rule="evenodd" d="M9.67827 2H18.3217C19.395 1.99998 20.2808 1.99997 21.0024 2.0596C21.7519 2.12154 22.4408 2.25447 23.0879 2.58799C24.0915 3.10519 24.9074 3.93048 25.4187 4.94555C25.7484 5.60011 25.8798 6.29697 25.9411 7.05506C26 7.78495 26 8.68094 26 9.76657V14.4628C26 15.5484 26 16.4444 25.9411 17.1743C25.8798 17.9324 25.7484 18.6292 25.4187 19.2838C24.9074 20.2988 24.0915 21.1241 23.0879 21.6413C22.4408 21.9748 21.7519 22.1078 21.0024 22.1697C20.2808 22.2294 19.395 22.2293 18.3217 22.2293H18.0419L14 27L9.95812 22.2293H9.6783C8.60499 22.2293 7.71917 22.2294 6.99757 22.1697C6.2481 22.1078 5.55917 21.9748 4.91205 21.6413C3.90852 21.1241 3.09262 20.2988 2.5813 19.2838C2.25158 18.6292 2.12016 17.9324 2.05893 17.1743C1.99997 16.4444 1.99998 15.5484 2 14.4627V9.7666C1.99998 8.68096 1.99997 7.78495 2.05893 7.05506C2.12016 6.29697 2.25158 5.60011 2.5813 4.94555C3.09262 3.93048 3.90852 3.10519 4.91205 2.58799C5.55917 2.25447 6.2481 2.12154 6.99757 2.0596C7.71916 1.99997 8.60497 1.99998 9.67827 2ZM7.21472 4.74799C6.63016 4.7963 6.33123 4.88386 6.12269 4.99134C5.62093 5.24994 5.21298 5.66258 4.95732 6.17012C4.85106 6.38105 4.7645 6.68343 4.71674 7.27471C4.6677 7.88173 4.66667 8.66705 4.66667 9.8223V14.407C4.66667 15.5623 4.6677 16.3476 4.71674 16.9546C4.7645 17.5459 4.85106 17.8483 4.95732 18.0592C5.21298 18.5667 5.62093 18.9794 6.12269 19.238C6.33123 19.3455 6.63016 19.433 7.21472 19.4813C7.81484 19.5309 8.59123 19.532 9.73333 19.532H11.1848L14 22.8548L16.8153 19.532H18.2667C19.4088 19.532 20.1852 19.5309 20.7853 19.4813C21.3698 19.433 21.6688 19.3455 21.8773 19.238C22.3791 18.9794 22.787 18.5667 23.0427 18.0592C23.1489 17.8483 23.2355 17.5459 23.2833 16.9546C23.3323 16.3476 23.3333 15.5623 23.3333 14.407V9.8223C23.3333 8.66705 23.3323 7.88173 23.2833 7.27471C23.2355 6.68343 23.1489 6.38105 23.0427 6.17012C22.787 5.66258 22.3791 5.24994 21.8773 4.99134C21.6688 4.88386 21.3698 4.7963 20.7853 4.74799C20.1852 4.69839 19.4088 4.69734 18.2667 4.69734H9.73333C8.59123 4.69734 7.81484 4.69839 7.21472 4.74799ZM10 6.83604L14.5523 11.4407L10 16.0453L8.1144 14.138L10.7811 11.4407L8.1144 8.74335L10 6.83604ZM14 14.138H19.3334V16.8354H14V14.138Z" fill="url(#paint0_linear_152_219)"/>
<defs>
<linearGradient id="paint0_linear_152_219" x1="1.99369" y1="0.725635" x2="26.0063" y2="0.725635" gradientUnits="userSpaceOnUse">
<stop stop-color="#DEFAF6"/>
<stop offset="0.35" stop-color="#FFABFF"/>
<stop offset="1" stop-color="#00B8D9"/>
</linearGradient>
</defs>
</svg>
