<svg width="28" height="28" viewBox="0 0 28 28" fill="none" xmlns="http://www.w3.org/2000/svg">
<path fill-rule="evenodd" clip-rule="evenodd" d="M14.4917 3.66156C14.1667 3.60173 13.8333 3.60173 13.5083 3.66156C13.1845 3.72117 12.8527 3.87072 11.7342 4.41953L7.46755 6.51288C6.09687 7.18538 5.70377 7.39734 5.42835 7.67328C5.15177 7.95037 4.94143 8.28433 4.81255 8.651C4.6842 9.01613 4.66681 9.45593 4.66681 10.9597V15.3728C4.66681 16.7279 4.68124 17.1236 4.78881 17.4605C4.89679 17.7986 5.07363 18.1117 5.30862 18.3808C5.54271 18.6488 5.87708 18.8706 7.04811 19.5888L11.3147 22.2055C12.6282 23.011 13.0218 23.2319 13.4091 23.3183C13.7981 23.405 14.2019 23.405 14.5909 23.3183C14.9782 23.2319 15.3718 23.011 16.6853 22.2055L20.9519 19.5888C22.1229 18.8706 22.4573 18.6488 22.6914 18.3808C22.9264 18.1117 23.1032 17.7986 23.2112 17.4605C23.3188 17.1236 23.3332 16.7279 23.3332 15.3728V10.9597C23.3332 9.45593 23.3158 9.01613 23.1875 8.651C23.0586 8.28433 22.8482 7.95037 22.5717 7.67328C22.2962 7.39734 21.9031 7.18538 20.5325 6.51288L16.2658 4.41953C15.1473 3.87072 14.8155 3.72117 14.4917 3.66156ZM13.0166 1.08974C13.6665 0.970086 14.3335 0.970086 14.9834 1.08974C15.7211 1.22555 16.4053 1.56172 17.3116 2.007C17.3599 2.03073 17.4088 2.05476 17.4584 2.0791L21.725 4.17245C21.7864 4.20258 21.847 4.23227 21.9069 4.26158C23.0136 4.80365 23.8479 5.2123 24.4767 5.84234C25.0299 6.39652 25.4506 7.06445 25.7083 7.79777C26.0014 8.63145 26.0007 9.54647 25.9999 10.7602C25.9999 10.8258 25.9998 10.8923 25.9998 10.9597V15.3728C25.9998 15.4332 25.9999 15.4927 25.9999 15.5515C26.0006 16.6477 26.0011 17.4748 25.7558 18.2429C25.5399 18.9192 25.1862 19.5454 24.7162 20.0835C24.1824 20.6948 23.4674 21.1327 22.5197 21.7131C22.4689 21.7442 22.4174 21.7757 22.3652 21.8077L18.0986 24.4244C18.0397 24.4605 17.9816 24.4962 17.9243 24.5314C16.8649 25.1822 16.0663 25.6727 15.1818 25.8699C14.4038 26.0434 13.5962 26.0434 12.8182 25.8699C11.9337 25.6727 11.1351 25.1822 10.0757 24.5314C10.0184 24.4962 9.96031 24.4605 9.9014 24.4244L5.6348 21.8077C5.58263 21.7757 5.53114 21.7442 5.48031 21.7131C4.53265 21.1327 3.81762 20.6948 3.28382 20.0835C2.81384 19.5454 2.46014 18.9192 2.24418 18.2429C1.9989 17.4748 1.99942 16.6477 2.0001 15.5515C2.00014 15.4927 2.00018 15.4332 2.00018 15.3728V10.9597C2.00018 10.8923 2.00013 10.8258 2.00009 10.7602C1.99925 9.54647 1.99862 8.63145 2.29167 7.79777C2.54943 7.06445 2.97011 6.39652 3.52326 5.84234C4.1521 5.21231 4.98642 4.80365 6.09313 4.26158C6.15295 4.23228 6.21357 4.20258 6.275 4.17245L10.5416 2.0791C10.5912 2.05476 10.6401 2.03073 10.6884 2.007C11.5947 1.56172 12.2789 1.22555 13.0166 1.08974Z" fill="url(#paint0_linear_152_208)"/>
<path fill-rule="evenodd" clip-rule="evenodd" d="M3.92977 5.90821L9.26302 8.52489L8.07047 10.8653L2.73722 8.24864L3.92977 5.90821ZM18.737 8.52489L24.0702 5.90821L25.2628 8.24864L19.9295 10.8653L18.737 8.52489ZM12.6667 24.0869V20.1618H15.3333V24.0869H12.6667Z" fill="url(#paint1_linear_152_208)"/>
<path fill-rule="evenodd" clip-rule="evenodd" d="M12.3676 12.0183L13.2411 9.44687H14.7589L15.6324 12.0183L18.2529 12.8754V14.3649L15.6324 15.222L14.7589 17.7934H13.2411L12.3676 15.222L9.74708 14.3649V12.8754L12.3676 12.0183Z" fill="url(#paint2_linear_152_208)"/>
<defs>
<linearGradient id="paint0_linear_152_208" x1="1.99369" y1="-0.274365" x2="26.0063" y2="-0.274365" gradientUnits="userSpaceOnUse">
<stop stop-color="#DEFAF6"/>
<stop offset="0.35" stop-color="#FFABFF"/>
<stop offset="1" stop-color="#00B8D9"/>
</linearGradient>
<linearGradient id="paint1_linear_152_208" x1="1.99369" y1="-0.274365" x2="26.0063" y2="-0.274365" gradientUnits="userSpaceOnUse">
<stop stop-color="#DEFAF6"/>
<stop offset="0.35" stop-color="#FFABFF"/>
<stop offset="1" stop-color="#00B8D9"/>
</linearGradient>
<linearGradient id="paint2_linear_152_208" x1="1.99369" y1="-0.274365" x2="26.0063" y2="-0.274365" gradientUnits="userSpaceOnUse">
<stop stop-color="#DEFAF6"/>
<stop offset="0.35" stop-color="#FFABFF"/>
<stop offset="1" stop-color="#00B8D9"/>
</linearGradient>
</defs>
</svg>
