<svg width="28" height="28" viewBox="0 0 28 28" fill="none" xmlns="http://www.w3.org/2000/svg">
<path fill-rule="evenodd" clip-rule="evenodd" d="M10.0384 6.95238H17.9616C18.9454 6.95236 19.7574 6.95235 20.4189 7.00499C21.1059 7.05967 21.7374 7.177 22.3306 7.4714C23.2505 7.92794 23.9984 8.65642 24.4671 9.55243C24.7694 10.1302 24.8899 10.7453 24.946 11.4145C25 12.0588 25 12.8497 25 13.8079V19.1444C25 20.1027 25 20.8936 24.946 21.5379C24.8899 22.2071 24.7694 22.8222 24.4671 23.4C23.9984 24.296 23.2505 25.0244 22.3306 25.481C21.7374 25.7754 21.1059 25.8927 20.4189 25.9474C19.7574 26 18.9454 26 17.9616 26H10.0384C9.05458 26 8.24257 26 7.5811 25.9474C6.89409 25.8927 6.26257 25.7754 5.66938 25.481C4.74948 25.0244 4.00157 24.296 3.53286 23.4C3.23061 22.8222 3.11015 22.2071 3.05402 21.5379C2.99997 20.8936 2.99998 20.1027 3 19.1444V13.808C2.99998 12.8497 2.99997 12.0588 3.05402 11.4145C3.11015 10.7453 3.23061 10.1302 3.53286 9.55243C4.00157 8.65642 4.74948 7.92794 5.66938 7.4714C6.26257 7.177 6.89409 7.05967 7.5811 7.00499C8.24256 6.95235 9.05456 6.95236 10.0384 6.95238ZM7.78016 9.37804C7.24432 9.42068 6.97029 9.49797 6.77914 9.59284C6.31918 9.82111 5.94523 10.1854 5.71087 10.6334C5.61348 10.8195 5.53412 11.0865 5.49034 11.6084C5.4454 12.1442 5.44445 12.8374 5.44445 13.8571V19.0952C5.44445 20.115 5.4454 20.8082 5.49034 21.344C5.53412 21.8659 5.61348 22.1328 5.71087 22.319C5.94523 22.767 6.31918 23.1313 6.77914 23.3595C6.97029 23.4544 7.24432 23.5317 7.78016 23.5743C8.33027 23.6181 9.04196 23.619 10.0889 23.619H17.9111C18.958 23.619 19.6697 23.6181 20.2198 23.5743C20.7557 23.5317 21.0297 23.4544 21.2209 23.3595C21.6808 23.1313 22.0548 22.767 22.2891 22.319C22.3865 22.1328 22.4659 21.8659 22.5097 21.344C22.5546 20.8082 22.5556 20.115 22.5556 19.0952V13.8571C22.5556 12.8374 22.5546 12.1442 22.5097 11.6084C22.4659 11.0865 22.3865 10.8195 22.2891 10.6334C22.0548 10.1854 21.6808 9.82111 21.2209 9.59284C21.0297 9.49797 20.7557 9.42068 20.2198 9.37804C19.6697 9.33426 18.958 9.33333 17.9111 9.33333H10.0889C9.04196 9.33333 8.33027 9.33426 7.78016 9.37804Z" fill="url(#paint0_linear_152_197)"/>
<path fill-rule="evenodd" clip-rule="evenodd" d="M11.5556 3.89285L11.5556 4.5715L9.11111 4.57136L9.11122 2.90239L9.45121 2.55702C9.74762 2.25593 10.1898 1.81804 10.9626 1.49142C11.7101 1.17553 12.674 1 14.0001 1C15.3261 1 16.29 1.17554 17.0375 1.49144C17.8103 1.81807 18.2525 2.25595 18.5488 2.55699L18.8889 2.9024V4.57143H16.4444V3.89284C16.3363 3.81062 16.2176 3.74038 16.0645 3.67565C15.7224 3.53109 15.1184 3.38095 14.0001 3.38095C12.8817 3.38095 12.2777 3.53108 11.9356 3.67564C11.7824 3.74038 11.6638 3.81062 11.5556 3.89285Z" fill="url(#paint1_linear_152_197)"/>
<path fill-rule="evenodd" clip-rule="evenodd" d="M14.0007 21.2381C12.5452 21.2389 11.0586 20.875 9.6 19.8095L11.0667 17.9048C12.0525 18.625 13.0082 18.8577 13.9993 18.8571C14.9904 18.8566 15.9483 18.6244 16.9333 17.9048L18.4 19.8095C16.9406 20.8756 15.4519 21.2373 14.0007 21.2381Z" fill="url(#paint2_linear_152_197)"/>
<path d="M7.88889 14.6905C7.88889 13.7043 8.7097 12.9048 9.72222 12.9048C10.7347 12.9048 11.5556 13.7043 11.5556 14.6905C11.5556 15.6767 10.7347 16.4762 9.72222 16.4762C8.7097 16.4762 7.88889 15.6767 7.88889 14.6905Z" fill="url(#paint3_linear_152_197)"/>
<path d="M16.4444 14.6905C16.4444 13.7043 17.2653 12.9048 18.2778 12.9048C19.2903 12.9048 20.1111 13.7043 20.1111 14.6905C20.1111 15.6767 19.2903 16.4762 18.2778 16.4762C17.2653 16.4762 16.4444 15.6767 16.4444 14.6905Z" fill="url(#paint4_linear_152_197)"/>
<defs>
<linearGradient id="paint0_linear_152_197" x1="2.99421" y1="-0.274365" x2="25.0057" y2="-0.274365" gradientUnits="userSpaceOnUse">
<stop stop-color="#DEFAF6"/>
<stop offset="0.35" stop-color="#FFABFF"/>
<stop offset="1" stop-color="#00B8D9"/>
</linearGradient>
<linearGradient id="paint1_linear_152_197" x1="2.99421" y1="-0.274365" x2="25.0057" y2="-0.274365" gradientUnits="userSpaceOnUse">
<stop stop-color="#DEFAF6"/>
<stop offset="0.35" stop-color="#FFABFF"/>
<stop offset="1" stop-color="#00B8D9"/>
</linearGradient>
<linearGradient id="paint2_linear_152_197" x1="2.99421" y1="-0.274365" x2="25.0057" y2="-0.274365" gradientUnits="userSpaceOnUse">
<stop stop-color="#DEFAF6"/>
<stop offset="0.35" stop-color="#FFABFF"/>
<stop offset="1" stop-color="#00B8D9"/>
</linearGradient>
<linearGradient id="paint3_linear_152_197" x1="2.99421" y1="-0.274365" x2="25.0057" y2="-0.274365" gradientUnits="userSpaceOnUse">
<stop stop-color="#DEFAF6"/>
<stop offset="0.35" stop-color="#FFABFF"/>
<stop offset="1" stop-color="#00B8D9"/>
</linearGradient>
<linearGradient id="paint4_linear_152_197" x1="2.99421" y1="-0.274365" x2="25.0057" y2="-0.274365" gradientUnits="userSpaceOnUse">
<stop stop-color="#DEFAF6"/>
<stop offset="0.35" stop-color="#FFABFF"/>
<stop offset="1" stop-color="#00B8D9"/>
</linearGradient>
</defs>
</svg>
