<svg width="24" height="24" viewBox="0 0 24 24" fill="none" xmlns="http://www.w3.org/2000/svg">
<path opacity="0.4" d="M8.04833 16.0195L8.03955 22.0937C8.03955 22.8344 8.59401 23.1966 9.28048 22.892L11.6391 21.8468C11.8327 21.7562 12.1584 21.7562 12.352 21.8468L14.7194 22.892C15.3971 23.1883 15.9604 22.8344 15.9604 22.0937V15.8713" fill="#41AEF0"/>
<path d="M9.62385 2.1936C11.0943 1.34465 12.9059 1.34465 14.3763 2.1936L17.8554 4.20224C19.3258 5.05119 20.2316 6.62012 20.2316 8.31802V12.3353C20.2316 14.0332 19.3258 15.6021 17.8554 16.4511L14.3763 18.4597C12.9059 19.3087 11.0943 19.3087 9.62385 18.4597L6.14479 16.4511C4.67437 15.6021 3.76855 14.0332 3.76855 12.3353V8.31802C3.76855 6.62012 4.67437 5.05119 6.14479 4.20224L9.62385 2.1936Z" fill="#41AEF0"/>
<path d="M10.8119 3.40857C11.5471 2.9841 12.4529 2.9841 13.1882 3.40857L17.3971 5.83864C18.1324 6.26312 18.5853 7.04758 18.5853 7.89653V12.7567C18.5853 13.6056 18.1324 14.3901 17.3971 14.8146L13.1882 17.2446C12.4529 17.6691 11.5471 17.6691 10.8119 17.2446L6.60292 14.8146C5.86771 14.3901 5.4148 13.6056 5.4148 12.7567V7.89653C5.4148 7.04758 5.86771 6.26312 6.60292 5.83864L10.8119 3.40857Z" fill="#121212" fill-opacity="0.7"/>
<path d="M12.0002 10.0001C12.9206 10.0001 13.6668 9.25389 13.6668 8.33341C13.6668 7.41294 12.9206 6.66675 12.0002 6.66675C11.0797 6.66675 10.3335 7.41294 10.3335 8.33341C10.3335 9.25389 11.0797 10.0001 12.0002 10.0001Z" fill="#FAFAFA"/>
<path d="M12.0002 10.8333C10.3302 10.8333 8.97021 11.9533 8.97021 13.3333C8.97021 13.4266 9.04355 13.4999 9.13688 13.4999H14.8635C14.9569 13.4999 15.0302 13.4266 15.0302 13.3333C15.0302 11.9533 13.6702 10.8333 12.0002 10.8333Z" fill="#FAFAFA"/>
</svg>
