<svg width="24" height="24" viewBox="0 0 24 24" fill="none" xmlns="http://www.w3.org/2000/svg">
<path opacity="0.4" d="M8.04833 16.0195L8.03955 22.0937C8.03955 22.8344 8.59401 23.1966 9.28048 22.892L11.6391 21.8468C11.8327 21.7562 12.1584 21.7562 12.352 21.8468L14.7194 22.892C15.3971 23.1883 15.9604 22.8344 15.9604 22.0937V15.8713" fill="#FFCD05"/>
<path d="M9.62385 2.1936C11.0943 1.34465 12.9059 1.34465 14.3763 2.1936L17.8554 4.20224C19.3258 5.05119 20.2316 6.62012 20.2316 8.31802V12.3353C20.2316 14.0332 19.3258 15.6021 17.8554 16.4511L14.3763 18.4597C12.9059 19.3087 11.0943 19.3087 9.62385 18.4597L6.14479 16.4511C4.67437 15.6021 3.76855 14.0332 3.76855 12.3353V8.31802C3.76855 6.62012 4.67437 5.05119 6.14479 4.20224L9.62385 2.1936Z" fill="#FFCD05"/>
<path d="M10.8119 3.40857C11.5471 2.9841 12.4529 2.9841 13.1882 3.40857L17.3971 5.83864C18.1324 6.26312 18.5853 7.04758 18.5853 7.89653V12.7567C18.5853 13.6056 18.1324 14.3901 17.3971 14.8146L13.1882 17.2446C12.4529 17.6691 11.5471 17.6691 10.8119 17.2446L6.60292 14.8146C5.86771 14.3901 5.4148 13.6056 5.4148 12.7567V7.89653C5.4148 7.04758 5.86771 6.26312 6.60292 5.83864L10.8119 3.40857Z" fill="#121212" fill-opacity="0.7"/>
<path d="M8 10.2629L8.82051 9.60115L10.704 10.9963C10.704 10.9963 12.8535 8.60805 15.4849 7L15.7989 7.37813C15.7989 7.37813 12.8054 9.9554 11.2595 13.3367L8 10.2629Z" fill="#FAFAFA"/>
</svg>
