<svg width="24" height="24" viewBox="0 0 24 24" fill="none" xmlns="http://www.w3.org/2000/svg">
<path d="M11.9999 23.7142C18.4695 23.7142 23.7142 18.4695 23.7142 11.9999C23.7142 5.53031 18.4695 0.285645 11.9999 0.285645C5.53031 0.285645 0.285645 5.53031 0.285645 11.9999C0.285645 18.4695 5.53031 23.7142 11.9999 23.7142Z" stroke="white" stroke-width="0.571428"/>
<path d="M8.76796 14.4238C8.5448 14.647 8.5448 15.0088 8.76796 15.2319C8.99112 15.4551 9.35292 15.4551 9.57608 15.2319L8.76796 14.4238ZM15.4003 9.17104C15.4003 8.85545 15.1444 8.59961 14.8288 8.59961H9.68601C9.37042 8.59961 9.11458 8.85545 9.11458 9.17104C9.11458 9.48664 9.37042 9.74246 9.68601 9.74246H14.2575V14.3139C14.2575 14.6295 14.5133 14.8854 14.8288 14.8854C15.1444 14.8854 15.4003 14.6295 15.4003 14.3139V9.17104ZM9.57608 15.2319L15.2329 9.5751L14.4248 8.76698L8.76796 14.4238L9.57608 15.2319Z" fill="white"/>
</svg>
